<svg width="64" height="64" viewBox="0 0 64 64" fill="none" xmlns="http://www.w3.org/2000/svg">
<circle cx="32" cy="32" r="32" fill="url(#paint0_linear_3650_46)"/>
<g filter="url(#filter0_d_3650_46)">
<path opacity="0.5" d="M17 25.7981C16.9937 24.1516 18.0244 22.7879 19.4069 22.2035L31.2467 17.1822C31.5106 17.0628 31.7934 17 32.0825 17C32.0825 21.6944 32.0825 26.3826 32.0825 31.077H17.5531C17.1697 29.1225 17.0126 27.3064 17.0063 25.7981H17ZM32.0825 31.077H46.6183C45.4117 37.1917 41.949 44.6952 33.7416 48.6229C33.22 48.8743 32.6481 49 32.0825 49C32.0825 43.0299 32.0825 37.0534 32.0825 31.0833V31.077Z" fill="white"/>
<path d="M32.0831 31.077H17.5977C18.8043 37.1917 22.2669 44.6952 30.4743 48.6229C30.9834 48.868 31.5364 48.9937 32.0894 49V31.0833L32.0831 31.077ZM32.0831 31.077H46.6629C47.0462 29.1225 47.2033 27.3064 47.2096 25.7981C47.2159 24.1516 46.1852 22.7879 44.8027 22.2035L32.9692 17.1822C32.7053 17.0628 32.4225 17 32.1271 17H32.0831V31.077Z" fill="white"/>
</g>
<defs>
<filter id="filter0_d_3650_46" x="15" y="16" width="36.209" height="38" filterUnits="userSpaceOnUse" color-interpolation-filters="sRGB">
<feFlood flood-opacity="0" result="BackgroundImageFix"/>
<feColorMatrix in="SourceAlpha" type="matrix" values="0 0 0 0 0 0 0 0 0 0 0 0 0 0 0 0 0 0 127 0" result="hardAlpha"/>
<feOffset dx="1" dy="2"/>
<feGaussianBlur stdDeviation="1.5"/>
<feComposite in2="hardAlpha" operator="out"/>
<feColorMatrix type="matrix" values="0 0 0 0 0 0 0 0 0 0 0 0 0 0 0 0 0 0 0.04 0"/>
<feBlend mode="normal" in2="BackgroundImageFix" result="effect1_dropShadow_3650_46"/>
<feBlend mode="normal" in="SourceGraphic" in2="effect1_dropShadow_3650_46" result="shape"/>
</filter>
<linearGradient id="paint0_linear_3650_46" x1="0.291515" y1="34.9547" x2="64.1935" y2="33.7431" gradientUnits="userSpaceOnUse">
<stop stop-color="#20C9DB"/>
<stop offset="1" stop-color="#A78BFA"/>
</linearGradient>
</defs>
</svg>
