<svg width="64" height="64" viewBox="0 0 64 64" fill="none" xmlns="http://www.w3.org/2000/svg">
<circle cx="32" cy="32" r="32" fill="url(#paint0_linear_3650_49)"/>
<g filter="url(#filter0_d_3650_49)">
<path opacity="0.6" d="M32.334 36.6279C32.6562 36.239 32.984 35.8279 33.2951 35.3946C34.634 33.5557 35.9729 31.1279 36.3451 28.3612C36.7395 27.739 37.434 27.3279 38.2229 27.3279C38.9618 27.3279 39.5562 26.7334 39.5562 25.9946C39.5562 25.2557 38.9618 24.6612 38.2229 24.6612C37.5395 24.6612 36.8895 24.8001 36.3007 25.0557C36.1507 24.1001 35.8784 23.1779 35.5062 22.3168C36.6062 21.8279 37.8284 21.5557 39.1118 21.5557C44.0229 21.5557 48.0007 25.5334 48.0007 30.4446C48.0007 36.6668 40.8895 42.0001 40.8895 42.0001L42.4395 44.3223C42.5895 44.5446 42.6673 44.8112 42.6673 45.0779C42.6673 45.8334 42.0562 46.4446 41.3007 46.4446H36.9173C36.1618 46.4446 35.5507 45.8334 35.5507 45.0779C35.5507 44.8112 35.6284 44.5446 35.7784 44.3223L37.334 42.0001C37.334 42.0001 34.434 39.8223 32.334 36.6279Z" fill="white"/>
<path d="M24.8889 18C29.8 18 33.7778 21.9778 33.7778 26.8889C33.7778 33.1111 26.6667 38.4444 26.6667 38.4444L28.2167 40.7667C28.3667 40.9889 28.4444 41.2556 28.4444 41.5222C28.4444 42.2778 27.8333 42.8889 27.0778 42.8889H22.6944C21.9389 42.8889 21.3278 42.2778 21.3278 41.5222C21.3278 41.2556 21.4056 40.9889 21.5556 40.7667L23.1111 38.4444C23.1111 38.4444 16 33.1111 16 26.8889C16 21.9778 19.9778 18 24.8889 18ZM21.7778 26C21.7778 24.7722 22.7722 23.7778 24 23.7778C24.7389 23.7778 25.3333 23.1833 25.3333 22.4444C25.3333 21.7056 24.7389 21.1111 24 21.1111C21.3 21.1111 19.1111 23.3 19.1111 26C19.1111 26.7389 19.7056 27.3333 20.4444 27.3333C21.1833 27.3333 21.7778 26.7389 21.7778 26Z" fill="white"/>
</g>
<defs>
<filter id="filter0_d_3650_49" x="14" y="17" width="38" height="34.4443" filterUnits="userSpaceOnUse" color-interpolation-filters="sRGB">
<feFlood flood-opacity="0" result="BackgroundImageFix"/>
<feColorMatrix in="SourceAlpha" type="matrix" values="0 0 0 0 0 0 0 0 0 0 0 0 0 0 0 0 0 0 127 0" result="hardAlpha"/>
<feOffset dx="1" dy="2"/>
<feGaussianBlur stdDeviation="1.5"/>
<feComposite in2="hardAlpha" operator="out"/>
<feColorMatrix type="matrix" values="0 0 0 0 0 0 0 0 0 0 0 0 0 0 0 0 0 0 0.04 0"/>
<feBlend mode="normal" in2="BackgroundImageFix" result="effect1_dropShadow_3650_49"/>
<feBlend mode="normal" in="SourceGraphic" in2="effect1_dropShadow_3650_49" result="shape"/>
</filter>
<linearGradient id="paint0_linear_3650_49" x1="0.291515" y1="34.9547" x2="64.1935" y2="33.7431" gradientUnits="userSpaceOnUse">
<stop stop-color="#20C9DB"/>
<stop offset="1" stop-color="#A78BFA"/>
</linearGradient>
</defs>
</svg>
