<svg width="64" height="64" viewBox="0 0 64 64" fill="none" xmlns="http://www.w3.org/2000/svg">
<circle cx="32" cy="32" r="32" fill="url(#paint0_linear_3650_50)"/>
<g filter="url(#filter0_d_3650_50)">
<path opacity="0.5" d="M16 36.4446C16 36.7835 16.1278 37.1279 16.3889 37.389C16.9111 37.9112 17.7556 37.9112 18.2722 37.389L26.6611 29.0001L32.8278 35.1668C33.35 35.689 34.1945 35.689 34.7111 35.1668L45.3222 24.5557V31.1168C45.3222 31.8557 45.9167 32.4501 46.6556 32.4501C47.3945 32.4501 47.9889 31.8557 47.9889 31.1168V39.5612C47.9889 41.5223 46.3945 43.1168 44.4334 43.1168L19.5556 43.1112C17.5944 43.1112 16 41.5168 16 39.5557V36.4446Z" fill="white"/>
<path d="M35.5553 21.3333C35.5553 20.5944 36.1498 20 36.8887 20H46.6664C47.4053 20 47.9998 20.5944 47.9998 21.3333V31.1111C47.9998 31.85 47.4053 32.4445 46.6664 32.4445C45.9276 32.4445 45.3331 31.85 45.3331 31.1111V24.55L34.722 35.1611C34.1998 35.6833 33.3553 35.6833 32.8387 35.1611L26.6664 28.9945L18.2775 37.3889C17.7553 37.9111 16.9109 37.9111 16.3942 37.3889C15.8775 36.8667 15.872 36.0222 16.3886 35.5L25.722 26.1667C26.2442 25.6444 27.0886 25.6444 27.6053 26.1667L33.7775 32.3389L43.4498 22.6667H36.8887C36.1498 22.6667 35.5553 22.0722 35.5553 21.3333Z" fill="white"/>
</g>
<defs>
<filter id="filter0_d_3650_50" x="14" y="19" width="38" height="29.1172" filterUnits="userSpaceOnUse" color-interpolation-filters="sRGB">
<feFlood flood-opacity="0" result="BackgroundImageFix"/>
<feColorMatrix in="SourceAlpha" type="matrix" values="0 0 0 0 0 0 0 0 0 0 0 0 0 0 0 0 0 0 127 0" result="hardAlpha"/>
<feOffset dx="1" dy="2"/>
<feGaussianBlur stdDeviation="1.5"/>
<feComposite in2="hardAlpha" operator="out"/>
<feColorMatrix type="matrix" values="0 0 0 0 0 0 0 0 0 0 0 0 0 0 0 0 0 0 0.04 0"/>
<feBlend mode="normal" in2="BackgroundImageFix" result="effect1_dropShadow_3650_50"/>
<feBlend mode="normal" in="SourceGraphic" in2="effect1_dropShadow_3650_50" result="shape"/>
</filter>
<linearGradient id="paint0_linear_3650_50" x1="0.291515" y1="34.9547" x2="64.1935" y2="33.7431" gradientUnits="userSpaceOnUse">
<stop stop-color="#20C9DB"/>
<stop offset="1" stop-color="#A78BFA"/>
</linearGradient>
</defs>
</svg>
