<svg width="48" height="28" viewBox="0 0 48 28" fill="none" xmlns="http://www.w3.org/2000/svg">
<path d="M47.8659 26.9394C47.8502 26.841 47.8353 26.7438 47.8189 26.6465C47.7197 26.043 47.5964 25.4465 47.453 24.8582C47.2013 23.8305 46.8847 22.8274 46.5068 21.856C46.1873 21.0333 45.8236 20.233 45.42 19.4572C44.9008 18.4611 44.3154 17.5049 43.6686 16.5955C42.8756 15.4811 41.9899 14.437 41.0229 13.4749C40.6172 13.0706 40.1972 12.6804 39.7636 12.3065C38.8244 11.4945 37.8211 10.7551 36.7643 10.0941C36.7735 10.0788 36.7814 10.0625 36.7907 10.0472C37.2749 9.20938 37.7605 8.37263 38.2447 7.5348C38.7182 6.71683 39.1917 5.89885 39.6652 5.08095C40.0061 4.49386 40.3462 3.90555 40.6849 3.31846C40.7655 3.17898 40.829 3.03487 40.8768 2.88726C41.0094 2.47592 41.0151 2.0435 40.9089 1.64152C40.8818 1.54197 40.8489 1.4447 40.809 1.34979C40.7691 1.25481 40.7227 1.16226 40.67 1.0732C40.4888 0.768554 40.23 0.50368 39.9048 0.310291C39.6174 0.139255 39.2958 0.037276 38.9664 0.00799637C38.828 -0.0037155 38.6889 -0.00257288 38.5506 0.0114956C38.4365 0.0232075 38.3231 0.044346 38.2105 0.0736257C37.8097 0.180247 37.4375 0.400558 37.1479 0.719278C37.0438 0.834111 36.9497 0.960728 36.8691 1.10013C36.5289 1.68722 36.1888 2.27553 35.8494 2.86262L34.4288 5.31647C33.9446 6.15437 33.459 6.99105 32.9748 7.82895C32.9221 7.92029 32.8686 8.0117 32.8158 8.10432C32.7423 8.07497 32.6696 8.04569 32.5962 8.01756C29.9263 6.99805 27.0296 6.44031 24.0018 6.44031C23.9191 6.44031 23.8371 6.44031 23.7536 6.44145C21.0616 6.46838 18.4752 6.93714 16.062 7.77853C15.7832 7.8758 15.5072 7.97892 15.2334 8.08676C15.1842 8.0012 15.1336 7.91565 15.0851 7.83009C14.6009 6.9922 14.1153 6.15551 13.6311 5.31761C13.1576 4.49971 12.684 3.68174 12.2105 2.86376C11.8697 2.27667 11.5295 1.68843 11.1908 1.10134C11.1095 0.961871 11.0161 0.835325 10.912 0.720492C10.6225 0.401701 10.2502 0.181389 9.84944 0.0747683C9.73677 0.0454886 9.62339 0.0244216 9.50858 0.0127097C9.37095 -0.00135884 9.2319 -0.00257288 9.09355 0.00913899C8.7641 0.037276 8.44248 0.139255 8.15439 0.311505C7.82921 0.504822 7.57249 0.769696 7.38994 1.07435C7.33717 1.1634 7.2901 1.25602 7.25088 1.35093C7.21094 1.44584 7.17672 1.54311 7.15105 1.64273C7.04479 2.04465 7.05049 2.47706 7.18242 2.8884C7.23091 3.03609 7.29367 3.1802 7.37425 3.31967C7.71512 3.90676 8.05526 4.495 8.39399 5.08209C8.86821 5.90006 9.34171 6.71804 9.81522 7.53594C10.2994 8.37384 10.7843 9.21052 11.2685 10.0484C11.2721 10.0554 11.2771 10.0625 11.2806 10.0695C10.3037 10.6777 9.37452 11.3515 8.4974 12.0886C7.97183 12.5304 7.46553 12.9932 6.98061 13.4772C6.01435 14.4393 5.12938 15.4834 4.33498 16.5979C3.68747 17.5072 3.1013 18.4623 2.58359 19.4595C2.17997 20.2353 1.81628 21.0357 1.49681 21.8583C1.11887 22.8298 0.802244 23.8329 0.550517 24.8606C0.407182 25.4489 0.285241 26.0442 0.184692 26.6489C0.168291 26.7461 0.153314 26.8445 0.138339 26.9418C0.0841425 27.2922 0.0385078 27.6449 0 28H48C47.9615 27.6449 47.9159 27.2922 47.8624 26.9418L47.8659 26.9394Z" fill="#34A853"/>
<path d="M36.4851 21.352C37.4457 20.7117 37.5854 19.2303 36.7968 18.0434C36.0088 16.8563 34.5911 16.4132 33.6313 17.0535C32.6707 17.6939 32.5309 19.1752 33.3196 20.3622C34.1076 21.5492 35.5253 21.9924 36.4851 21.352Z" fill="#202124"/>
<path d="M14.7227 20.3661C15.5114 19.1791 15.3717 17.6977 14.4111 17.0574C13.4505 16.4171 12.0336 16.8603 11.2449 18.0472C10.4569 19.2343 10.5967 20.7156 11.5565 21.3559C12.5171 21.9963 13.9347 21.5531 14.7227 20.3661Z" fill="#202124"/>
</svg>
