<svg width="80" height="80" viewBox="0 0 80 80" fill="none" xmlns="http://www.w3.org/2000/svg">
<circle cx="40" cy="40" r="40" fill="url(#paint0_linear_3668_253)"/>
<g filter="url(#filter0_d_3668_253)">
<path opacity="0.4" d="M20.8008 29.3303V49.8598C21.7808 49.4298 22.8607 49.1898 24.0007 49.1898C25.1407 49.1898 26.2207 49.4298 27.2006 49.8598V29.3303C26.2207 29.7603 25.1407 30.0003 24.0007 30.0003C22.8607 30.0003 21.7808 29.7603 20.8008 29.3303ZM37.5004 20.3006C36.5604 21.2406 36.5604 22.7605 37.5004 23.6905L43.1003 29.2903C43.7903 29.9803 44.8202 30.1803 45.7202 29.8103C46.6202 29.4403 47.2002 28.5704 47.2002 27.6004V25.2005H49.6001C51.3701 25.2005 52.8001 26.6304 52.8001 28.4004V49.8698C53.78 49.4398 54.86 49.1998 56 49.1998C57.14 49.1998 58.2199 49.4398 59.1999 49.8698V28.4004C59.1999 23.1005 54.9 18.8006 49.6001 18.8006H47.2002V16.4007C47.2002 15.4307 46.6202 14.5508 45.7202 14.1808C44.8202 13.8108 43.7903 14.0208 43.1003 14.7007L37.5004 20.3006Z" fill="url(#paint1_linear_3668_253)"/>
<path d="M23.9998 19.6008C25.3298 19.6008 26.3998 20.6708 26.3998 22.0008C26.3998 23.3307 25.3298 24.4007 23.9998 24.4007C22.6698 24.4007 21.5999 23.3307 21.5999 22.0008C21.5999 20.6708 22.6698 19.6008 23.9998 19.6008ZM23.9998 30.0005C28.4197 30.0005 31.9996 26.4206 31.9996 22.0008C31.9996 17.5809 28.4197 14.001 23.9998 14.001C19.5799 14.001 16 17.5809 16 22.0008C16 26.4206 19.5799 30.0005 23.9998 30.0005ZM23.9998 54.7998C25.3298 54.7998 26.3998 55.8698 26.3998 57.1998C26.3998 58.5297 25.3298 59.5997 23.9998 59.5997C22.6698 59.5997 21.5999 58.5297 21.5999 57.1998C21.5999 55.8698 22.6698 54.7998 23.9998 54.7998ZM23.9998 65.1996C28.4197 65.1996 31.9996 61.6197 31.9996 57.1998C31.9996 52.7799 28.4197 49.2 23.9998 49.2C19.5799 49.2 16 52.7799 16 57.1998C16 61.6197 19.5799 65.1996 23.9998 65.1996ZM53.5992 57.1998C53.5992 55.8698 54.6691 54.7998 55.9991 54.7998C57.3291 54.7998 58.399 55.8698 58.399 57.1998C58.399 58.5297 57.3291 59.5997 55.9991 59.5997C54.6691 59.5997 53.5992 58.5297 53.5992 57.1998ZM63.9989 57.1998C63.9989 52.7799 60.419 49.2 55.9991 49.2C51.5792 49.2 47.9993 52.7799 47.9993 57.1998C47.9993 61.6197 51.5792 65.1996 55.9991 65.1996C60.419 65.1996 63.9989 61.6197 63.9989 57.1998Z" fill="url(#paint2_linear_3668_253)"/>
</g>
<defs>
<filter id="filter0_d_3668_253" x="14" y="13" width="53.998" height="57.1992" filterUnits="userSpaceOnUse" color-interpolation-filters="sRGB">
<feFlood flood-opacity="0" result="BackgroundImageFix"/>
<feColorMatrix in="SourceAlpha" type="matrix" values="0 0 0 0 0 0 0 0 0 0 0 0 0 0 0 0 0 0 127 0" result="hardAlpha"/>
<feOffset dx="1" dy="2"/>
<feGaussianBlur stdDeviation="1.5"/>
<feComposite in2="hardAlpha" operator="out"/>
<feColorMatrix type="matrix" values="0 0 0 0 0 0 0 0 0 0 0 0 0 0 0 0 0 0 0.04 0"/>
<feBlend mode="normal" in2="BackgroundImageFix" result="effect1_dropShadow_3668_253"/>
<feBlend mode="normal" in="SourceGraphic" in2="effect1_dropShadow_3668_253" result="shape"/>
</filter>
<linearGradient id="paint0_linear_3668_253" x1="40" y1="0" x2="40" y2="80" gradientUnits="userSpaceOnUse">
<stop stop-color="#F8F8F8"/>
<stop offset="1" stop-color="white"/>
</linearGradient>
<linearGradient id="paint1_linear_3668_253" x1="20.9757" y1="33.5909" x2="59.314" y2="32.8127" gradientUnits="userSpaceOnUse">
<stop stop-color="#18CADD"/>
<stop offset="1" stop-color="#4E64F1"/>
</linearGradient>
<linearGradient id="paint2_linear_3668_253" x1="16.2186" y1="41.964" x2="64.1461" y2="41.112" gradientUnits="userSpaceOnUse">
<stop stop-color="#18CADD"/>
<stop offset="1" stop-color="#4E64F1"/>
</linearGradient>
</defs>
</svg>
