<svg width="80" height="80" viewBox="0 0 80 80" fill="none" xmlns="http://www.w3.org/2000/svg">
<circle cx="40" cy="40" r="40" fill="url(#paint0_linear_3701_265)"/>
<g filter="url(#filter0_d_3701_265)">
<path opacity="0.4" d="M31.5293 39.9999C31.5293 44.6764 35.3234 48.4705 39.9999 48.4705C44.6764 48.4705 48.4705 44.6764 48.4705 39.9999C48.4705 35.3234 44.6764 31.5293 39.9999 31.5293C35.3234 31.5293 31.5293 35.3234 31.5293 39.9999Z" fill="url(#paint1_linear_3701_265)"/>
<path d="M40 16C41.5618 16 42.8235 17.2618 42.8235 18.8235V20.4382C51.4794 21.6735 58.3265 28.5206 59.5618 37.1765H61.1765C62.7382 37.1765 64 38.4382 64 40C64 41.5618 62.7382 42.8235 61.1765 42.8235H59.5618C58.3265 51.4794 51.4794 58.3265 42.8235 59.5618V61.1765C42.8235 62.7382 41.5618 64 40 64C38.4382 64 37.1765 62.7382 37.1765 61.1765V59.5618C28.5206 58.3265 21.6735 51.4794 20.4382 42.8235H18.8235C17.2618 42.8235 16 41.5618 16 40C16 38.4382 17.2618 37.1765 18.8235 37.1765H20.4382C21.6735 28.5206 28.5206 21.6735 37.1765 20.4382V18.8235C37.1765 17.2618 38.4382 16 40 16ZM25.8824 40C25.8824 47.8 32.2 54.1176 40 54.1176C47.8 54.1176 54.1176 47.8 54.1176 40C54.1176 32.2 47.8 25.8824 40 25.8824C32.2 25.8824 25.8824 32.2 25.8824 40Z" fill="url(#paint2_linear_3701_265)"/>
</g>
<defs>
<filter id="filter0_d_3701_265" x="14" y="15" width="54" height="54" filterUnits="userSpaceOnUse" color-interpolation-filters="sRGB">
<feFlood flood-opacity="0" result="BackgroundImageFix"/>
<feColorMatrix in="SourceAlpha" type="matrix" values="0 0 0 0 0 0 0 0 0 0 0 0 0 0 0 0 0 0 127 0" result="hardAlpha"/>
<feOffset dx="1" dy="2"/>
<feGaussianBlur stdDeviation="1.5"/>
<feComposite in2="hardAlpha" operator="out"/>
<feColorMatrix type="matrix" values="0 0 0 0 0 0 0 0 0 0 0 0 0 0 0 0 0 0 0.04 0"/>
<feBlend mode="normal" in2="BackgroundImageFix" result="effect1_dropShadow_3701_265"/>
<feBlend mode="normal" in="SourceGraphic" in2="effect1_dropShadow_3701_265" result="shape"/>
</filter>
<linearGradient id="paint0_linear_3701_265" x1="40" y1="0" x2="40" y2="80" gradientUnits="userSpaceOnUse">
<stop stop-color="#F8F8F8"/>
<stop offset="1" stop-color="white"/>
</linearGradient>
<linearGradient id="paint1_linear_3701_265" x1="31.6065" y1="40.782" x2="48.5217" y2="40.4613" gradientUnits="userSpaceOnUse">
<stop stop-color="#18CADD"/>
<stop offset="1" stop-color="#4E64F1"/>
</linearGradient>
<linearGradient id="paint2_linear_3701_265" x1="16.2186" y1="42.2161" x2="64.1451" y2="41.3073" gradientUnits="userSpaceOnUse">
<stop stop-color="#18CADD"/>
<stop offset="1" stop-color="#4E64F1"/>
</linearGradient>
</defs>
</svg>
