<svg width="80" height="80" viewBox="0 0 80 80" fill="none" xmlns="http://www.w3.org/2000/svg">
<circle cx="40" cy="40" r="40" fill="url(#paint0_linear_3701_266)"/>
<g filter="url(#filter0_d_3701_266)">
<path opacity="0.4" d="M16 38.4982C16 43.5884 17.7999 48.2755 20.8371 52.044L16.2625 60.6964C15.8125 61.5401 15.9531 62.5712 16.6 63.2743C17.2468 63.9774 18.2686 64.193 19.1404 63.818L30.2395 59.0653C33.2205 60.312 36.5296 61.0057 39.9981 61.0057C53.2532 61.0057 63.9961 50.9284 63.9961 38.5076C63.9961 26.0867 53.2532 16 39.9981 16C26.7429 16 16 26.0773 16 38.4982ZM30.1645 40.6636C31.0457 39.7824 32.4705 39.7824 33.3423 40.6636L36.7171 44.0384L46.6163 30.427C47.3475 29.4239 48.7536 29.1989 49.7566 29.9301C50.7597 30.6613 50.9847 32.0674 50.2535 33.0705L38.8169 48.8192C38.4326 49.3535 37.8326 49.691 37.1764 49.7379C36.5202 49.7848 35.8734 49.5504 35.4141 49.0911L30.1739 43.8509C29.2927 42.9697 29.2927 41.5448 30.1739 40.673L30.1645 40.6636Z" fill="url(#paint1_linear_3701_266)"/>
<path d="M46.6254 30.4267C47.3566 29.4237 48.7627 29.1987 49.7657 29.9299C50.7688 30.6611 50.9938 32.0672 50.2626 33.0703L38.8166 48.819C38.4323 49.3533 37.8323 49.6908 37.1761 49.7377C36.5199 49.7845 35.8731 49.5502 35.4138 49.0908L30.1736 43.8506C29.2924 42.9695 29.2924 41.5446 30.1736 40.6728C31.0548 39.801 32.4796 39.7916 33.3514 40.6728L36.7262 44.0475L46.6254 30.4361V30.4267Z" fill="url(#paint2_linear_3701_266)"/>
</g>
<defs>
<filter id="filter0_d_3701_266" x="14" y="15" width="53.9961" height="54" filterUnits="userSpaceOnUse" color-interpolation-filters="sRGB">
<feFlood flood-opacity="0" result="BackgroundImageFix"/>
<feColorMatrix in="SourceAlpha" type="matrix" values="0 0 0 0 0 0 0 0 0 0 0 0 0 0 0 0 0 0 127 0" result="hardAlpha"/>
<feOffset dx="1" dy="2"/>
<feGaussianBlur stdDeviation="1.5"/>
<feComposite in2="hardAlpha" operator="out"/>
<feColorMatrix type="matrix" values="0 0 0 0 0 0 0 0 0 0 0 0 0 0 0 0 0 0 0.04 0"/>
<feBlend mode="normal" in2="BackgroundImageFix" result="effect1_dropShadow_3701_266"/>
<feBlend mode="normal" in="SourceGraphic" in2="effect1_dropShadow_3701_266" result="shape"/>
</filter>
<linearGradient id="paint0_linear_3701_266" x1="40" y1="0" x2="40" y2="80" gradientUnits="userSpaceOnUse">
<stop stop-color="#F8F8F8"/>
<stop offset="1" stop-color="white"/>
</linearGradient>
<linearGradient id="paint1_linear_3701_266" x1="16.2186" y1="42.2161" x2="64.1412" y2="41.3075" gradientUnits="userSpaceOnUse">
<stop stop-color="#18CADD"/>
<stop offset="1" stop-color="#4E64F1"/>
</linearGradient>
<linearGradient id="paint2_linear_3701_266" x1="29.6092" y1="40.5564" x2="50.7558" y2="40.1369" gradientUnits="userSpaceOnUse">
<stop stop-color="#18CADD"/>
<stop offset="1" stop-color="#4E64F1"/>
</linearGradient>
</defs>
</svg>
