<svg width="80" height="80" viewBox="0 0 80 80" fill="none" xmlns="http://www.w3.org/2000/svg">
<circle cx="40" cy="40" r="40" fill="url(#paint0_linear_3607_2)"/>
<g filter="url(#filter0_d_3607_2)">
<path opacity="0.4" d="M24.6248 61.4323L28.7453 53.2227C28.8809 53.4423 29.0166 53.6788 29.1522 53.9321C29.7881 55.0977 31.0344 55.8072 32.3655 55.7818C34.7903 55.7227 36.0706 56.069 38.1393 57.3275C39.2754 58.0201 40.7082 58.0201 41.8443 57.3275C43.9131 56.069 45.1933 55.7312 47.6181 55.7818C48.9492 55.8156 50.187 55.0977 50.8314 53.9321C50.9671 53.6788 51.1027 53.4423 51.2384 53.2227L55.3588 61.4323C55.8591 62.4374 55.4521 63.6537 54.4517 64.152L47.1603 67.7838C46.1853 68.2653 44.9983 67.9021 44.4726 66.9561L39.9961 58.9238L35.5195 66.9561C34.9938 67.9021 33.8069 68.2737 32.8318 67.7838L25.5405 64.152C24.5315 63.6537 24.1246 62.4374 24.6333 61.4323H24.6248Z" fill="url(#paint1_linear_3607_2)"/>
<path d="M41.8525 20.5194C40.7164 19.8269 39.2836 19.8269 38.1475 20.5194C36.0788 21.7779 34.7985 22.1158 32.3737 22.0651C31.0426 22.0313 29.8048 22.7492 29.1604 23.9148C27.9989 26.0348 27.0578 26.9723 24.9297 28.1294C23.7597 28.7629 23.0475 30.0045 23.073 31.3305C23.1323 33.7461 22.7847 35.0215 21.5214 37.0824C20.8262 38.2141 20.8262 39.6416 21.5214 40.7733C22.7847 42.8342 23.1238 44.1096 23.073 46.5252C23.039 47.8512 23.7597 49.0844 24.9297 49.7263C27.0578 50.8834 27.9989 51.8209 29.1604 53.9409C29.7963 55.1065 31.0426 55.816 32.3737 55.7906C34.7985 55.7315 36.0788 56.0778 38.1475 57.3363C39.2836 58.0288 40.7164 58.0288 41.8525 57.3363C43.9212 56.0778 45.2015 55.7399 47.6263 55.7906C48.9574 55.8244 50.1952 55.1065 50.8396 53.9409C52.0011 51.8209 52.9422 50.8834 55.0703 49.7263C56.2403 49.0928 56.9525 47.8512 56.927 46.5252C56.8677 44.1096 57.2153 42.8342 58.4786 40.7733C59.1738 39.6416 59.1738 38.2141 58.4786 37.0824C57.2153 35.0215 56.8762 33.7461 56.927 31.3305C56.961 30.0045 56.2403 28.7713 55.0703 28.1294C52.9422 26.9723 52.0011 26.0348 50.8396 23.9148C50.2037 22.7492 48.9574 22.0397 47.6263 22.0651C45.2015 22.1242 43.9212 21.7779 41.8525 20.5194ZM39.9958 30.8153C44.4893 30.8153 48.135 34.4472 48.135 38.9236C48.135 43.4001 44.4893 47.0319 39.9958 47.0319C35.5022 47.0319 31.8565 43.4001 31.8565 38.9236C31.8565 34.4472 35.5022 30.8153 39.9958 30.8153Z" fill="url(#paint2_linear_3607_2)"/>
</g>
<defs>
<filter id="filter0_d_3607_2" x="19" y="19" width="44" height="54" filterUnits="userSpaceOnUse" color-interpolation-filters="sRGB">
<feFlood flood-opacity="0" result="BackgroundImageFix"/>
<feColorMatrix in="SourceAlpha" type="matrix" values="0 0 0 0 0 0 0 0 0 0 0 0 0 0 0 0 0 0 127 0" result="hardAlpha"/>
<feOffset dx="1" dy="2"/>
<feGaussianBlur stdDeviation="1.5"/>
<feComposite in2="hardAlpha" operator="out"/>
<feColorMatrix type="matrix" values="0 0 0 0 0 0 0 0 0 0 0 0 0 0 0 0 0 0 0.04 0"/>
<feBlend mode="normal" in2="BackgroundImageFix" result="effect1_dropShadow_3607_2"/>
<feBlend mode="normal" in="SourceGraphic" in2="effect1_dropShadow_3607_2" result="shape"/>
</filter>
<linearGradient id="paint0_linear_3607_2" x1="40" y1="0" x2="40" y2="80" gradientUnits="userSpaceOnUse">
<stop stop-color="#F8F8F8"/>
<stop offset="1" stop-color="white"/>
</linearGradient>
<linearGradient id="paint1_linear_3607_2" x1="24.556" y1="61.2935" x2="55.6285" y2="60.0512" gradientUnits="userSpaceOnUse">
<stop stop-color="#18CADD"/>
<stop offset="1" stop-color="#4E64F1"/>
</linearGradient>
<linearGradient id="paint2_linear_3607_2" x1="21.1731" y1="40.6756" x2="59.1148" y2="39.9534" gradientUnits="userSpaceOnUse">
<stop stop-color="#18CADD"/>
<stop offset="1" stop-color="#4E64F1"/>
</linearGradient>
</defs>
</svg>
