<svg width="80" height="80" viewBox="0 0 80 80" fill="none" xmlns="http://www.w3.org/2000/svg">
<circle cx="40" cy="40" r="40" fill="url(#paint0_linear_3542_17370)"/>
<g filter="url(#filter0_d_3542_17370)">
<path opacity="0.4" d="M16 39.9953C16 53.2541 26.7458 64 40.0047 64C51.7726 64 61.562 55.5327 63.6155 44.3649L56.4329 41.9738C55.5327 41.6737 54.8294 40.9705 54.5387 40.0797C53.9855 38.4294 53.4323 36.7697 52.8884 35.1193C52.3915 33.6378 53.1228 32.025 54.5575 31.4155C56.7517 30.4778 58.9459 29.5308 61.14 28.5931C57.0799 21.0916 49.1471 16 40.014 16C39.5546 16 39.1045 16.0094 38.645 16.0375C39.5265 17.6691 40.4079 19.3006 41.2799 20.9416C41.8707 22.0293 41.7206 23.3796 40.9142 24.3172C40.4079 24.908 39.9109 25.4893 39.4046 26.0801C38.4481 27.1959 38.4387 28.8275 39.3764 29.9527C39.7984 30.4591 40.2203 30.9654 40.6517 31.4811C41.158 32.0906 41.2049 32.9627 40.7642 33.6191C40.3141 34.2942 39.4702 34.5755 38.7107 34.3223L36.5352 33.5909C35.8789 33.3753 35.1569 33.4221 34.538 33.7316C34.3504 33.8253 34.1629 33.9191 33.9847 34.0129C33.1408 34.4348 32.7376 35.4194 33.0283 36.3102C33.1783 36.7509 33.4784 37.126 33.891 37.3604C34.9693 37.9793 36.0476 38.5981 37.126 39.2076C38.0355 39.7234 39.0576 39.9953 40.1078 39.9953C41.4581 39.9953 42.799 39.9953 44.1492 39.9953C45.3401 39.9953 46.4841 40.4735 47.328 41.3174L47.6937 41.6831C48.5376 42.527 49.0158 43.671 49.0158 44.8619V45.6401C49.0158 47.253 48.1531 48.7439 46.7466 49.5503L45.9871 49.9816C44.5712 50.7974 43.5397 52.1477 43.1459 53.7323L42.8834 54.7825C42.4989 56.311 41.3362 57.5112 39.8171 57.9519C38.4106 58.3551 37.0135 57.2955 37.0135 55.8327C37.0135 54.6138 37.0135 53.3948 37.0135 52.1758C37.0135 52.0914 37.0135 52.0351 37.0041 51.9882C37.0041 51.9226 36.9947 51.8663 36.9853 51.8007C36.9666 51.6788 36.9384 51.5475 36.9103 51.435C36.8447 51.1912 36.7415 50.9662 36.6103 50.7599C36.3477 50.3379 35.9726 49.991 35.5132 49.7566C34.6036 49.2971 34.0223 48.3688 34.0129 47.328C34.0129 46.0808 34.0129 44.8337 34.0129 43.5866C34.0129 43.5772 34.0129 43.5679 34.0129 43.5585C34.0129 43.5304 34.0129 43.4835 34.0129 43.4366C34.0129 43.3803 34.0035 43.3334 34.0035 43.2866C33.9941 43.1834 33.9847 43.0803 33.966 42.9771C33.9285 42.7708 33.8816 42.5833 33.816 42.3864C33.6847 42.0019 33.4972 41.655 33.2627 41.3362C32.7845 40.6986 32.1 40.2203 31.303 39.9859L25.6394 38.3731C24.2516 37.9605 23.0701 37.0979 22.2825 35.907C20.9322 33.891 19.5913 31.875 18.2411 29.8496C16.8064 32.9345 16 36.3758 16 39.9953Z" fill="url(#paint1_linear_3542_17370)"/>
<path d="M38.6348 16.0283C29.5862 16.5347 21.8784 22.0576 18.2402 29.8498L22.2816 35.9072C23.0693 37.0887 24.2602 37.9607 25.6292 38.3452L31.2834 39.9674C32.8962 40.4268 34.0027 41.899 34.0027 43.5774V47.3188C34.0027 48.3502 34.584 49.2879 35.503 49.7474C36.4219 50.2068 37.0033 51.1445 37.0033 52.176V55.8329C37.0033 57.2957 38.4004 58.3553 39.8069 57.9521C41.3166 57.5208 42.4887 56.3112 42.8732 54.7827L43.1357 53.7325C43.5295 52.1478 44.561 50.7882 45.9769 49.9818L46.7364 49.5505C48.1429 48.7534 49.0056 47.2531 49.0056 45.6403V44.8621C49.0056 43.6712 48.5274 42.5272 47.6835 41.6833L47.3178 41.3176C46.4739 40.4737 45.3299 39.9955 44.139 39.9955H40.0976C39.0568 39.9955 38.0253 39.7236 37.1158 39.2078L33.8808 37.3606C33.4776 37.1262 33.1681 36.7511 33.0181 36.3104C32.7181 35.4102 33.1213 34.435 33.9745 34.0131L34.5278 33.7318C35.1466 33.4223 35.8687 33.3661 36.525 33.5911L38.7005 34.3131C39.4694 34.5663 40.3133 34.2756 40.754 33.6099C41.1947 32.9535 41.1478 32.0814 40.6415 31.472L39.3662 29.9435C38.4285 28.8183 38.4379 27.1774 39.3944 26.0709L40.904 24.3081C41.7104 23.3704 41.8605 22.0295 41.2697 20.9324L38.6348 16.0283ZM61.1298 28.5839L54.5473 31.4063C53.1126 32.0252 52.3906 33.6286 52.8782 35.1102L54.5285 40.0705C54.8286 40.9707 55.5319 41.6739 56.4227 41.9646L63.6053 44.3557C63.8679 42.9398 63.9991 41.477 63.9991 39.9861C63.9991 35.8603 62.9583 31.9689 61.1205 28.5745L61.1298 28.5839Z" fill="url(#paint2_linear_3542_17370)"/>
</g>
<defs>
<filter id="filter0_d_3542_17370" x="14" y="15" width="54" height="54" filterUnits="userSpaceOnUse" color-interpolation-filters="sRGB">
<feFlood flood-opacity="0" result="BackgroundImageFix"/>
<feColorMatrix in="SourceAlpha" type="matrix" values="0 0 0 0 0 0 0 0 0 0 0 0 0 0 0 0 0 0 127 0" result="hardAlpha"/>
<feOffset dx="1" dy="2"/>
<feGaussianBlur stdDeviation="1.5"/>
<feComposite in2="hardAlpha" operator="out"/>
<feColorMatrix type="matrix" values="0 0 0 0 0 0 0 0 0 0 0 0 0 0 0 0 0 0 0.04 0"/>
<feBlend mode="normal" in2="BackgroundImageFix" result="effect1_dropShadow_3542_17370"/>
<feBlend mode="normal" in="SourceGraphic" in2="effect1_dropShadow_3542_17370" result="shape"/>
</filter>
<linearGradient id="paint0_linear_3542_17370" x1="40" y1="0" x2="40" y2="80" gradientUnits="userSpaceOnUse">
<stop stop-color="#F8F8F8"/>
<stop offset="1" stop-color="white"/>
</linearGradient>
<linearGradient id="paint1_linear_3542_17370" x1="16.2169" y1="42.216" x2="63.7598" y2="41.3218" gradientUnits="userSpaceOnUse">
<stop stop-color="#18CADD"/>
<stop offset="1" stop-color="#4E64F1"/>
</linearGradient>
<linearGradient id="paint2_linear_3542_17370" x1="18.4487" y1="38.9729" x2="64.1344" y2="38.0294" gradientUnits="userSpaceOnUse">
<stop stop-color="#18CADD"/>
<stop offset="1" stop-color="#4E64F1"/>
</linearGradient>
</defs>
</svg>
