<svg width="45" height="54" viewBox="0 0 45 54" fill="none" xmlns="http://www.w3.org/2000/svg">
<g filter="url(#filter0_d_3550_223)">
<path d="M2 27.2253C2 17.6807 7.94317 12.6738 13.5158 12.6738C17.1385 12.6738 19.9508 14.7704 21.8337 14.7704C23.45 14.7704 26.4508 12.5408 30.3573 12.5408C32.1974 12.4598 34.0269 12.8592 35.6684 13.7002C37.31 14.5411 38.7077 15.7951 39.726 17.3403C38.1429 18.2609 36.8301 19.5872 35.9213 21.1844C35.0125 22.7815 34.5401 24.5926 34.552 26.4333C34.564 28.5173 35.1808 30.5523 36.3264 32.288C37.472 34.0237 39.0965 35.3844 41 36.2026C41 36.2026 36.4955 48.9258 30.4093 48.9258C27.6143 48.9258 25.4412 47.0365 22.4967 47.0365C19.4958 47.0365 16.5167 49 14.5775 49C9.02 48.9956 2 36.9269 2 27.2253ZM21.435 12.0346C21.2904 10.8086 21.401 9.56573 21.7599 8.38517C22.1188 7.20461 22.718 6.11228 23.5193 5.1778C24.3976 3.97606 25.5241 2.98027 26.8212 2.25904C28.1184 1.5378 29.5554 1.10826 31.0333 1C31.1596 2.38089 31.0056 3.77322 30.5806 5.09227C30.1556 6.41132 29.4685 7.62952 28.5612 8.67276C27.7984 9.69212 26.8188 10.5267 25.694 11.1152C24.5693 11.7037 23.328 12.0313 22.0612 12.0739C21.8518 12.077 21.6424 12.0639 21.435 12.0346Z" fill="#C2C2C2"/>
</g>
<defs>
<filter id="filter0_d_3550_223" x="0" y="0" width="45" height="54" filterUnits="userSpaceOnUse" color-interpolation-filters="sRGB">
<feFlood flood-opacity="0" result="BackgroundImageFix"/>
<feColorMatrix in="SourceAlpha" type="matrix" values="0 0 0 0 0 0 0 0 0 0 0 0 0 0 0 0 0 0 127 0" result="hardAlpha"/>
<feOffset dx="1" dy="2"/>
<feGaussianBlur stdDeviation="1.5"/>
<feComposite in2="hardAlpha" operator="out"/>
<feColorMatrix type="matrix" values="0 0 0 0 0 0 0 0 0 0 0 0 0 0 0 0 0 0 0.04 0"/>
<feBlend mode="normal" in2="BackgroundImageFix" result="effect1_dropShadow_3550_223"/>
<feBlend mode="normal" in="SourceGraphic" in2="effect1_dropShadow_3550_223" result="shape"/>
</filter>
</defs>
</svg>
