<svg width="39" height="33" viewBox="0 0 39 33" fill="none" xmlns="http://www.w3.org/2000/svg">
<path fill-rule="evenodd" clip-rule="evenodd" d="M12.368 0.11118C11.2692 0.52152 9.55439 1.42294 8.31352 2.24238C6.82893 3.22279 4.78918 5.09264 3.7734 6.4044C1.94885 8.76045 0.994364 11.1568 0.4459 14.7589C0.0770365 17.1811 0.050806 17.796 0.0167743 24.8265C-0.0194122 32.3036 -0.0524049 31.8343 0.550677 32.4267C1.13258 32.9984 0.788312 32.9727 7.87623 32.9727C14.722 32.9727 14.4823 32.9864 15.0479 32.5626C15.1923 32.4544 15.4008 32.215 15.5112 32.0306L15.7118 31.6952L15.732 25.3247L15.7522 18.9543L15.5916 18.5876C15.4031 18.1571 14.8857 17.6773 14.4949 17.5707C14.3347 17.527 12.9997 17.4971 11.1976 17.4969L8.16959 17.4964L8.16959 17.0374C8.16959 15.9922 8.47292 14.2185 8.85263 13.0434C9.3574 11.481 10.1276 10.2213 11.2433 9.13334C12.1535 8.24571 13.2074 7.54081 14.6891 6.82861C15.7725 6.30789 15.935 6.17868 16.2326 5.60117C16.3115 5.44823 16.364 5.17564 16.3666 4.9062C16.3703 4.51615 16.3208 4.35774 15.9549 3.58823C14.5622 0.660077 14.4483 0.474288 13.8665 0.182721C13.4399 -0.0310997 12.8273 -0.0603002 12.368 0.11118ZM34.3417 0.0576661C33.9298 0.132346 31.9935 1.06326 30.9449 1.69063C27.7638 3.594 25.2807 6.144 23.8276 8.9996C22.765 11.0877 22.2387 13.197 21.8681 16.8533C21.7695 17.8249 21.7413 19.2777 21.7147 24.7529C21.6779 32.312 21.6446 31.8334 22.2485 32.4267C22.8304 32.9983 22.4866 32.9727 29.5702 32.9727C36.4747 32.9727 36.2326 32.9875 36.7941 32.5328C36.9414 32.4135 37.1485 32.1452 37.2544 31.9365L37.4468 31.557L37.4452 25.2385C37.4436 19.0397 37.4407 18.9138 37.2922 18.5915C37.1182 18.2138 36.8529 17.9197 36.4808 17.6921C36.2268 17.5366 36.147 17.5321 33.0266 17.4964L29.8324 17.4599L29.855 16.8759C29.9137 15.3675 30.2843 13.5723 30.7991 12.3041C31.3284 11.0002 31.9623 10.0491 32.9243 9.11552C33.7998 8.26593 34.6937 7.66053 36.0967 6.96702C37.4418 6.3022 37.8177 5.99581 37.97 5.44041C38.1502 4.78304 38.0553 4.45183 37.1684 2.64067C36.6734 1.62989 36.2342 0.834035 36.0648 0.641019C35.6344 0.15067 35.0046 -0.0625671 34.3417 0.0576661Z" fill="url(#paint0_linear_3550_20)"/>
<defs>
<linearGradient id="paint0_linear_3550_20" x1="0.173298" y1="18.0087" x2="38.1562" y2="17.1777" gradientUnits="userSpaceOnUse">
<stop stop-color="#20C9DB"/>
<stop offset="1" stop-color="#A78BFA"/>
</linearGradient>
</defs>
</svg>
