<svg width="54" height="54" viewBox="0 0 54 54" fill="none" xmlns="http://www.w3.org/2000/svg">
<g filter="url(#filter0_d_3550_150)">
<path d="M24.3059 30.1388C24.3059 34.1765 22.2024 36.7176 18.8424 36.7176C15.4824 36.7176 13.3788 34.1624 13.3788 30.1388C13.3788 26.0871 15.4824 23.5459 18.8424 23.5459C22.2024 23.5459 24.3059 26.0871 24.3059 30.1388ZM28.9929 15.8941L27.5247 15.9929C26.6918 16.0494 26.3247 16.3459 26.3247 16.8824C26.3247 17.4471 26.7906 17.7576 27.44 17.7576C28.3294 17.7576 28.9929 17.1788 28.9929 16.4024V15.8941ZM50 25C50 38.3976 39.3976 49 26 49C12.6024 49 2 38.3976 2 25C2 11.6024 12.6024 1 26 1C39.3976 1 50 11.6024 50 25ZM31.5624 15.5976C31.5624 17.5459 32.6353 18.7318 34.3859 18.7318C35.8682 18.7318 36.8 17.8988 36.9553 16.7129H35.7976C35.6424 17.3624 35.1341 17.7153 34.3859 17.7153C33.3976 17.7153 32.7906 16.9106 32.7906 15.5976C32.7906 14.2988 33.3976 13.5224 34.3859 13.5224C35.1765 13.5224 35.6706 13.9741 35.7976 14.5529H36.9553C36.8 13.3953 35.8965 12.52 34.3859 12.52C32.6353 12.5059 31.5624 13.6918 31.5624 15.5976ZM15.4259 12.6329V18.6188H16.6118V14.9482C16.6118 14.1718 17.1624 13.5506 17.8824 13.5506C18.5882 13.5506 19.04 13.9741 19.04 14.6518V18.6188H20.1976V14.8353C20.1976 14.1153 20.6918 13.5506 21.4682 13.5506C22.2447 13.5506 22.6259 13.9459 22.6259 14.7788V18.6188H23.8118V14.4824C23.8118 13.24 23.1059 12.5059 21.8918 12.5059C21.0588 12.5059 20.3671 12.9294 20.0706 13.5788H19.9718C19.7035 12.9294 19.1388 12.5059 18.32 12.5059C17.5153 12.5059 16.9082 12.9012 16.6541 13.5788H16.5694V12.6188L15.4259 12.6329ZM26.4094 30.1388C26.4094 24.9294 23.5012 21.6541 18.8424 21.6541C14.1835 21.6541 11.2753 24.9294 11.2753 30.1388C11.2753 35.3482 14.1835 38.6094 18.8424 38.6094C23.5012 38.6094 26.4094 35.3341 26.4094 30.1388ZM27.1435 18.7176C27.9341 18.7176 28.5835 18.3788 28.9506 17.7718H29.0494V18.6188H30.1929V14.5247C30.1929 13.2682 29.3459 12.52 27.8353 12.52C26.4659 12.52 25.5059 13.1835 25.3788 14.1859H26.5224C26.6494 13.7482 27.1153 13.5082 27.7788 13.5082C28.5835 13.5082 29.0071 13.8753 29.0071 14.5388V15.0612L27.3835 15.16C25.9576 15.2447 25.1529 15.8659 25.1529 16.9529C25.1388 18.0259 25.9859 18.7176 27.1435 18.7176ZM40.0894 33.6682C40.0894 31.3388 38.7341 29.9835 35.3176 29.2353L33.4965 28.84C31.2518 28.3459 30.3765 27.4565 30.3765 26.1718C30.3765 24.5059 31.9576 23.5035 34.0047 23.5035C36.1506 23.5035 37.5624 24.6047 37.7459 26.4118H39.7929C39.6941 23.6306 37.3365 21.6682 34.0612 21.6682C30.6588 21.6682 28.2729 23.5741 28.2729 26.2706C28.2729 28.6 29.6988 30.0965 32.9882 30.8165L34.8094 31.2118C37.0824 31.7059 38 32.6235 38 33.9929C38 35.6024 36.3765 36.7741 34.16 36.7741C31.8024 36.7741 30.1647 35.7012 29.9247 33.9365H27.8776C28.0753 36.7741 30.4612 38.6094 34.0471 38.6094C37.7035 38.6094 40.0894 36.7035 40.0894 33.6682Z" fill="white"/>
</g>
<defs>
<filter id="filter0_d_3550_150" x="0" y="0" width="54" height="54" filterUnits="userSpaceOnUse" color-interpolation-filters="sRGB">
<feFlood flood-opacity="0" result="BackgroundImageFix"/>
<feColorMatrix in="SourceAlpha" type="matrix" values="0 0 0 0 0 0 0 0 0 0 0 0 0 0 0 0 0 0 127 0" result="hardAlpha"/>
<feOffset dx="1" dy="2"/>
<feGaussianBlur stdDeviation="1.5"/>
<feComposite in2="hardAlpha" operator="out"/>
<feColorMatrix type="matrix" values="0 0 0 0 0 0 0 0 0 0 0 0 0 0 0 0 0 0 0.04 0"/>
<feBlend mode="normal" in2="BackgroundImageFix" result="effect1_dropShadow_3550_150"/>
<feBlend mode="normal" in="SourceGraphic" in2="effect1_dropShadow_3550_150" result="shape"/>
</filter>
</defs>
</svg>
