<svg width="64" height="64" viewBox="0 0 64 64" fill="none" xmlns="http://www.w3.org/2000/svg">
<circle cx="32" cy="32" r="32" fill="white"/>
<path opacity="0.35" d="M16 32C16 40.8375 23.1625 48 32 48C40.8375 48 48 40.8375 48 32C48 23.1625 40.8375 16 32 16C23.1625 16 16 23.1625 16 32ZM30 38C30 36.8937 30.8938 36 32 36C32.55 36 33.05 36.225 33.4125 36.5875C33.5938 36.7687 33.7375 36.9875 33.8438 37.225C33.9062 37.375 33.95 37.5312 33.9625 37.6C33.9875 37.7563 33.9937 37.825 33.9937 37.7938C34 37.8938 34 37.8937 34.0063 38.0187C34 38.1875 33.9937 38.25 33.9937 38.2188C33.975 38.35 33.9688 38.3813 33.9625 38.4125C33.9375 38.5375 33.8937 38.6625 33.8438 38.7875C33.7437 39.025 33.5938 39.2375 33.4188 39.4188C33.0563 39.7812 32.5562 40.0063 32.0063 40.0063C30.9 40.0063 30.0063 39.1125 30.0063 38.0063L30 38ZM30.0438 25.7812C30.0563 25.6812 30.0563 25.6812 30.0688 25.5875C30.0625 25.6125 30.075 25.5437 30.1187 25.3938C30.15 25.3063 30.15 25.3 30.15 25.3C30.2437 25.05 30.3813 24.8188 30.5625 24.6313C30.9187 24.2438 31.4312 24.0063 32 24.0063C33.1375 24.0063 34.0437 24.975 33.9625 26.1125C33.8062 28.2875 33.65 30.45 33.5 32.6125C33.5 32.625 33.5 32.6313 33.5 32.65C33.4937 32.6812 33.4937 32.7125 33.4875 32.7563C33.4875 32.7625 33.4813 32.775 33.4813 32.7875C33.475 32.825 33.4625 32.8625 33.4562 32.9062C33.4312 32.9937 33.4 33.0813 33.3563 33.1688C33.275 33.3375 33.1625 33.4875 33.0312 33.6063C32.7625 33.8563 32.4 34.0063 32.0063 34.0063C31.2188 34.0063 30.5688 33.4 30.5125 32.6125C30.3563 30.4375 30.2 28.275 30.05 26.1125C30.05 26.1062 30.05 26.1 30.0438 26C30.0438 25.9 30.0437 25.8938 30.05 25.7937L30.0438 25.7812Z" fill="url(#paint0_linear_3687_198)"/>
<path d="M32 40C30.8937 40 30 39.1062 30 38C30 36.8938 30.8937 36 32 36C33.1063 36 34 36.8938 34 38C34 39.1062 33.1063 40 32 40ZM32 24C33.1437 24 34.0437 24.9687 33.9625 26.1062L33.5 32.6063C33.4375 33.3938 32.7875 34 32 34C31.2125 34 30.5625 33.3938 30.5063 32.6063L30.0438 26.1062C29.9563 24.9687 30.8563 24 32 24Z" fill="url(#paint1_linear_3687_198)"/>
<defs>
<linearGradient id="paint0_linear_3687_198" x1="32" y1="16" x2="32" y2="48" gradientUnits="userSpaceOnUse">
<stop stop-color="#8A62C3"/>
<stop offset="1" stop-color="#D17082"/>
</linearGradient>
<linearGradient id="paint1_linear_3687_198" x1="32" y1="24" x2="32" y2="40" gradientUnits="userSpaceOnUse">
<stop stop-color="#8A62C3"/>
<stop offset="1" stop-color="#D17082"/>
</linearGradient>
</defs>
</svg>
