<svg width="191" height="32" viewBox="0 0 191 32" fill="none" xmlns="http://www.w3.org/2000/svg">
<path d="M50 24C50 21.5 48.8 19.2 47 17.8C46.3 19.2 45 20.4 43.5 21C45.6 19.9 47.1 17.6 47.1 15C47.1 11.3 44.1 8.3 40.4 8.3C40.1 8.3 39.9 8.3 39.6 8.3C40.5 10.3 41 12.5 41 14.9C41 15.1 41 15.2 41 15.4C40.7 6.9 33.7 0 25 0C16.3 0 9.3 6.9 9 15.4C9 15.3 9 15.1 9 15C9 12.6 9.5 10.4 10.4 8.4C4.5 9.2 0 14.1 0 20.2C0 26.7 5.4 32 11.9 32H42.1C46.5 31.9 50 28.4 50 24Z" fill="url(#paint0_linear_361_148)"/>
<path d="M25.0029 3.19922C32.0721 3.19922 37.8026 8.92987 37.8027 15.999C37.8027 23.0683 32.0722 28.7988 25.0029 28.7988C17.9338 28.7987 12.2031 23.0682 12.2031 15.999C12.2032 8.92993 17.9338 3.19932 25.0029 3.19922ZM25.0029 4.77148C18.8021 4.77159 13.7755 9.79818 13.7754 15.999C13.7754 22.2 18.802 27.2274 25.0029 27.2275C31.2039 27.2275 36.2314 22.2 36.2314 15.999C36.2313 9.79811 31.2039 4.77148 25.0029 4.77148ZM27.2637 8.60156C28.6621 8.63466 29.9924 9.21317 30.9697 10.2139C31.9471 11.2146 32.4941 12.5582 32.4941 13.957C32.4941 15.3558 31.9471 16.6995 30.9697 17.7002C29.9924 18.7009 28.6621 19.2794 27.2637 19.3125H23.4258V21.3711C23.4258 21.9181 23.2081 22.4433 22.8213 22.8301C22.4345 23.2167 21.9102 23.4336 21.3633 23.4336C20.8164 23.4336 20.292 23.2167 19.9053 22.8301C19.5668 22.4916 19.3574 22.0474 19.3105 21.5752L19.3008 21.376V10.665C19.3008 10.1179 19.5184 9.59294 19.9053 9.20605C20.2922 8.81917 20.8171 8.60156 21.3643 8.60156H27.2637ZM23.4258 15.6074H27.1396C27.3563 15.6074 27.5713 15.5653 27.7715 15.4824C27.9716 15.3995 28.1534 15.2772 28.3066 15.124C28.4598 14.9708 28.5812 14.789 28.6641 14.5889C28.7469 14.3888 28.79 14.1745 28.79 13.958C28.79 13.7413 28.747 13.5264 28.6641 13.3262C28.5812 13.1261 28.4598 12.9442 28.3066 12.791C28.1535 12.6379 27.9715 12.5165 27.7715 12.4336C27.5713 12.3507 27.3563 12.3076 27.1396 12.3076H23.4258V15.6074Z" fill="white"/>
<path d="M56.8008 13.4504C56.8008 12.7838 57.3019 12.2005 57.9701 12.2005C58.6382 12.2005 59.2229 12.7005 59.2229 13.4504V14.1171C59.9746 13.0338 61.1439 12.1172 62.8143 12.1172C65.3199 12.1172 67.742 14.1171 67.742 17.6169C67.742 21.1167 65.3199 23.1166 62.8143 23.1166C61.0603 23.1166 59.9746 22.2 59.2229 21.2834V25.0332C59.2229 25.6998 58.7218 26.1998 57.9701 26.1998C57.3019 26.1998 56.8008 25.6998 56.8008 25.0332V13.4504ZM65.3199 17.6169C65.3199 15.5337 63.9 14.2004 62.3132 14.2004C60.6427 14.2004 59.2229 15.5337 59.2229 17.6169C59.2229 19.6168 60.6427 21.0334 62.3132 21.0334C63.9 21.0334 65.3199 19.7001 65.3199 17.6169Z" fill="white"/>
<path d="M68.6342 15.5653C68.6342 11.4463 71.7234 8.09961 76.0999 8.09961C78.331 8.09961 79.7898 8.78611 81.077 9.73006C81.3345 9.90168 81.5919 10.2449 81.5919 10.7598C81.5919 11.4463 81.077 11.9612 80.3047 11.9612C79.9615 11.9612 79.704 11.8754 79.5324 11.7038C78.5026 10.9314 77.4729 10.4166 76.0999 10.4166C73.3539 10.4166 71.3802 12.6477 71.3802 15.4795C71.3802 18.3113 73.3539 20.6283 76.0999 20.6283C77.6445 20.6283 78.6743 20.1134 79.704 19.2553C79.8757 19.0837 80.1331 18.9979 80.4763 18.9979C81.077 18.9979 81.6777 19.5127 81.6777 20.1992C81.6777 20.6283 81.5061 20.8857 81.2487 21.1432C79.8756 22.3446 78.331 23.1169 76.0141 23.1169C71.7234 22.9452 68.6342 19.6844 68.6342 15.5653Z" fill="white"/>
<path d="M82.7252 9.36582C82.7252 8.69919 83.2263 8.19922 83.8945 8.19922C84.5627 8.19922 85.1473 8.69919 85.1473 9.36582V21.7818C85.1473 22.4484 84.6462 22.9484 83.8945 22.9484C83.2263 22.9484 82.7252 22.4484 82.7252 21.7818V9.36582Z" fill="white"/>
<path d="M86.1497 17.7002C86.1497 14.6171 88.5718 12.1172 91.8291 12.1172C95.0864 12.1172 97.425 14.6171 97.425 17.6169C97.425 20.6167 95.0029 23.1166 91.7455 23.1166C88.4882 23.1166 86.1497 20.7001 86.1497 17.7002ZM95.0029 17.7002C95.0029 15.7837 93.6665 14.2837 91.7455 14.2837C89.8246 14.2837 88.5718 15.7837 88.5718 17.6169C88.5718 19.4501 89.9081 21.0334 91.8291 21.0334C93.75 21.0334 95.0029 19.5335 95.0029 17.7002Z" fill="white"/>
<path d="M108.05 21.782C108.05 22.4487 107.549 22.9486 106.798 22.9486C106.129 22.9486 105.545 22.4487 105.545 21.782V21.2821C104.877 22.282 103.874 23.1153 102.204 23.1153C99.7819 23.1153 98.4456 21.532 98.4456 19.0322V13.4492C98.4456 12.7825 98.9467 12.1992 99.6148 12.1992C100.283 12.1992 100.868 12.6992 100.868 13.4492V18.3656C100.868 20.0321 101.703 20.9487 103.123 20.9487C104.543 20.9487 105.545 19.9488 105.545 18.3656V13.5325C105.545 12.8658 106.046 12.2825 106.798 12.2825C107.466 12.2825 108.05 12.7825 108.05 13.5325V21.782Z" fill="white"/>
<path d="M120.001 21.7818C120.001 22.4484 119.5 22.9484 118.832 22.9484C118.164 22.9484 117.579 22.4484 117.579 21.7818V21.1152C116.827 22.1985 115.658 23.1151 113.988 23.1151C111.482 23.1151 109.06 21.1152 109.06 17.6154C109.06 14.1156 111.482 12.1157 113.988 12.1157C115.742 12.1157 116.827 12.949 117.579 13.9489V9.36582C117.579 8.69919 118.08 8.19922 118.748 8.19922C119.417 8.19922 120.001 8.69919 120.001 9.36582V21.7818ZM111.482 17.6154C111.482 19.6986 112.902 21.0319 114.489 21.0319C116.076 21.0319 117.579 19.6986 117.579 17.6154C117.579 15.6155 116.159 14.1989 114.489 14.1989C112.902 14.1989 111.482 15.5322 111.482 17.6154Z" fill="white"/>
<path d="M133.775 23.7513C129.545 23.7513 126.425 20.4217 126.425 16.2126V16.1707C126.425 12.0244 129.545 8.59012 133.838 8.59012C136.205 8.59012 137.712 9.34399 139.073 10.4957C139.241 10.6423 139.409 10.8517 139.409 11.1658C139.409 11.6056 139.011 11.9825 138.571 11.9825C138.341 11.9825 138.173 11.8778 138.026 11.7941C136.875 10.7889 135.639 10.1188 133.817 10.1188C130.571 10.1188 128.142 12.7573 128.142 16.1288V16.1707C128.142 19.5631 130.571 22.2226 133.817 22.2226C135.66 22.2226 136.917 21.6153 138.173 20.4426C138.32 20.2961 138.508 20.2123 138.697 20.2123C139.115 20.2123 139.492 20.5892 139.492 21.008C139.492 21.2593 139.367 21.4478 139.22 21.5944C137.775 22.9346 136.184 23.7513 133.775 23.7513ZM144.859 23.7303C142.849 23.7303 140.817 22.5995 140.817 20.3589V20.317C140.817 18.0554 142.702 16.8199 145.445 16.8199C146.848 16.8199 147.791 17.0083 148.775 17.2806V16.9036C148.775 14.9561 147.581 13.951 145.55 13.951C144.461 13.951 143.561 14.2023 142.744 14.5583C142.639 14.6001 142.535 14.6211 142.451 14.6211C142.053 14.6211 141.739 14.3279 141.739 13.93C141.739 13.595 141.948 13.3437 142.179 13.2599C143.247 12.7783 144.315 12.527 145.718 12.527C147.246 12.527 148.419 12.9249 149.215 13.7206C149.948 14.4536 150.325 15.5215 150.325 16.8827V22.809C150.325 23.2906 149.99 23.6047 149.55 23.6047C149.068 23.6047 148.775 23.2697 148.775 22.8508V21.8666C148.021 22.8508 146.786 23.7303 144.859 23.7303ZM145.173 22.453C147.183 22.453 148.796 21.2384 148.796 19.5212V18.4742C147.979 18.2438 146.953 18.0135 145.613 18.0135C143.582 18.0135 142.451 18.893 142.451 20.2542V20.2961C142.451 21.6572 143.728 22.453 145.173 22.453ZM153.133 22.788V13.3856C153.133 12.9458 153.489 12.5689 153.929 12.5689C154.41 12.5689 154.745 12.9039 154.745 13.3856V15.4168C155.52 13.6369 157.132 12.527 158.473 12.527C158.954 12.527 159.268 12.862 159.268 13.3437C159.268 13.7834 158.975 14.0976 158.556 14.1604C156.462 14.4326 154.745 15.9613 154.745 19.1024V22.788C154.745 23.2278 154.431 23.6047 153.949 23.6047C153.468 23.6047 153.133 23.2697 153.133 22.788ZM161.484 17.49H168.458C168.29 15.5425 167.18 13.8044 165.002 13.8044C163.097 13.8044 161.715 15.3959 161.484 17.49ZM169.337 22.1179C168.311 23.1021 167.096 23.7513 165.254 23.7513C162.301 23.7513 159.851 21.4687 159.851 18.1182V18.0763C159.851 14.9561 162.029 12.4432 165.044 12.4432C168.248 12.4432 170.07 15.0608 170.07 17.9297C170.07 18.3695 169.714 18.6836 169.316 18.6836H161.484C161.715 21.029 163.369 22.3483 165.296 22.3483C166.636 22.3483 167.599 21.8247 168.416 21.0918C168.562 20.9662 168.73 20.9033 168.876 20.9033C169.274 20.9033 169.588 21.1965 169.588 21.5944C169.588 21.8038 169.505 21.9713 169.337 22.1179ZM173.249 17.49H180.222C180.055 15.5425 178.945 13.8044 176.767 13.8044C174.861 13.8044 173.479 15.3959 173.249 17.49ZM181.102 22.1179C180.075 23.1021 178.861 23.7513 177.018 23.7513C174.065 23.7513 171.615 21.4687 171.615 18.1182V18.0763C171.615 14.9561 173.793 12.4432 176.809 12.4432C180.013 12.4432 181.835 15.0608 181.835 17.9297C181.835 18.3695 181.479 18.6836 181.081 18.6836H173.249C173.479 21.029 175.133 22.3483 177.06 22.3483C178.4 22.3483 179.363 21.8247 180.18 21.0918C180.327 20.9662 180.494 20.9033 180.641 20.9033C181.039 20.9033 181.353 21.1965 181.353 21.5944C181.353 21.8038 181.269 21.9713 181.102 22.1179ZM184.05 22.788V13.3856C184.05 12.9458 184.406 12.5689 184.846 12.5689C185.327 12.5689 185.662 12.9039 185.662 13.3856V15.4168C186.437 13.6369 188.05 12.527 189.39 12.527C189.872 12.527 190.186 12.862 190.186 13.3437C190.186 13.7834 189.892 14.0976 189.474 14.1604C187.38 14.4326 185.662 15.9613 185.662 19.1024V22.788C185.662 23.2278 185.348 23.6047 184.867 23.6047C184.385 23.6047 184.05 23.2697 184.05 22.788Z" fill="white"/>
<defs>
<linearGradient id="paint0_linear_361_148" x1="14.9992" y1="5.99978" x2="48.4978" y2="27.9985" gradientUnits="userSpaceOnUse">
<stop stop-color="#17B8CA"/>
<stop offset="0.5" stop-color="#17BED0"/>
<stop offset="1" stop-color="#1CD2E6"/>
</linearGradient>
</defs>
</svg>
