<svg width="48" height="35" viewBox="0 0 48 35" fill="none" xmlns="http://www.w3.org/2000/svg">
<path opacity="0.4" d="M0 24.6668C0 25.1751 0.191668 25.6918 0.583338 26.0834C1.36668 26.8668 2.63335 26.8668 3.40836 26.0834L15.9918 13.5001L25.2419 22.7501C26.0252 23.5334 27.2919 23.5334 28.0669 22.7501L43.9837 6.8335V16.6751C43.9837 17.7835 44.8753 18.6751 45.9837 18.6751C47.092 18.6751 47.9837 17.7835 47.9837 16.6751V29.3417C47.9837 32.2834 45.592 34.6751 42.6503 34.6751L5.33337 34.6667C2.39169 34.6667 0 32.2751 0 29.3334V24.6668Z" fill="url(#paint0_linear_3687_206)"/>
<path d="M29.3332 1.99999C29.3332 0.891663 30.2249 0 31.3332 0H46C47.1083 0 48 0.891663 48 1.99999V16.6666C48 17.7749 47.1083 18.6666 46 18.6666C44.8916 18.6666 44 17.7749 44 16.6666V6.82498L28.0832 22.7416C27.2998 23.5249 26.0332 23.5249 25.2582 22.7416L15.9997 13.4916L3.41632 26.0832C2.63298 26.8666 1.3663 26.8666 0.591297 26.0832C-0.183709 25.2999 -0.192042 24.0332 0.582964 23.2499L14.5831 9.24997C15.3664 8.46664 16.6331 8.46664 17.4081 9.24997L26.6665 18.5083L41.1749 3.99999H31.3332C30.2249 3.99999 29.3332 3.10832 29.3332 1.99999Z" fill="url(#paint1_linear_3687_206)"/>
<defs>
<linearGradient id="paint0_linear_3687_206" x1="0.218562" y1="22.0397" x2="48.0949" y2="20.4751" gradientUnits="userSpaceOnUse">
<stop stop-color="#64C381"/>
<stop offset="1" stop-color="#1B7B38"/>
</linearGradient>
<linearGradient id="paint1_linear_3687_206" x1="0.224469" y1="14.5667" x2="48.1066" y2="12.9329" gradientUnits="userSpaceOnUse">
<stop stop-color="#64C381"/>
<stop offset="1" stop-color="#1B7B38"/>
</linearGradient>
</defs>
</svg>
