<svg width="48" height="48" viewBox="0 0 48 48" fill="none" xmlns="http://www.w3.org/2000/svg">
<path opacity="0.4" d="M0 24C0 37.2562 10.7438 48 24 48C37.2562 48 48 37.2562 48 24C48 10.7438 37.2562 0 24 0C10.7438 0 0 10.7438 0 24ZM13.5 23.9437C13.5 23.5031 13.6875 23.0813 14.0156 22.7812L27.2531 10.9406C27.5719 10.6594 27.9844 10.5 28.4156 10.5C29.5781 10.5 30.4125 11.625 30.0844 12.7406L27.1594 22.5H32.9531C33.8156 22.5 34.5094 23.1938 34.5094 24.0563C34.5094 24.4969 34.3219 24.9187 33.9938 25.2188L20.7469 37.0594C20.4281 37.3406 20.0156 37.5 19.5844 37.5C18.4219 37.5 17.5875 36.375 17.9156 35.2594L20.8406 25.5H15.0469C14.1844 25.5 13.4906 24.8062 13.4906 23.9437H13.5Z" fill="url(#paint0_linear_3687_217)"/>
<path d="M20.85 25.5H15.0563C14.1938 25.5 13.5 24.8062 13.5 23.9437C13.5 23.5031 13.6875 23.0813 14.0156 22.7812L27.2531 10.9406C27.5719 10.6594 27.9844 10.5 28.4156 10.5C29.5781 10.5 30.4125 11.625 30.0844 12.7406L27.1594 22.5H32.9531C33.8156 22.5 34.5094 23.1938 34.5094 24.0563C34.5094 24.4969 34.3219 24.9187 33.9938 25.2188L20.7469 37.0594C20.4281 37.3406 20.0156 37.5 19.5844 37.5C18.4219 37.5 17.5875 36.375 17.9156 35.2594L20.85 25.5Z" fill="url(#paint1_linear_3687_217)"/>
<defs>
<linearGradient id="paint0_linear_3687_217" x1="0.218637" y1="26.2161" x2="48.1451" y2="25.3073" gradientUnits="userSpaceOnUse">
<stop stop-color="#E7A845"/>
<stop offset="1" stop-color="#B37A21"/>
</linearGradient>
<linearGradient id="paint1_linear_3687_217" x1="13.5957" y1="25.2465" x2="34.5759" y2="24.937" gradientUnits="userSpaceOnUse">
<stop stop-color="#E7A845"/>
<stop offset="1" stop-color="#B37A21"/>
</linearGradient>
</defs>
</svg>
