<svg width="48" height="42" viewBox="0 0 48 42" fill="none" xmlns="http://www.w3.org/2000/svg">
<path opacity="0.4" d="M2.66504 36C2.66504 32.3165 5.64853 29.333 9.33206 29.333C10.6071 29.333 11.7989 29.6913 12.8156 30.3164C12.2906 31.6664 11.9989 33.1332 11.9989 34.6666V38.6668C11.9989 39.6169 12.1989 40.5169 12.5572 41.3336H5.24018C3.82343 41.3336 2.66504 40.1836 2.66504 38.7585V36ZM13.3323 22.666C13.3323 24.8744 11.5405 26.6662 9.33206 26.6662C7.12361 26.6662 5.33185 24.8744 5.33185 22.666C5.33185 20.4575 7.12361 18.6657 9.33206 18.6657C11.5405 18.6657 13.3323 20.4575 13.3323 22.666ZM15.9991 36C15.9991 31.5831 19.5826 27.9996 23.9995 27.9996C28.4164 27.9996 31.9999 31.5831 31.9999 36V38.6668C31.9999 40.1419 30.8082 41.3336 29.3331 41.3336H18.6659C17.1908 41.3336 15.9991 40.1419 15.9991 38.6668V36ZM28.6664 19.3324C28.6664 21.9076 26.5746 23.9994 23.9995 23.9994C21.4244 23.9994 19.3326 21.9076 19.3326 19.3324C19.3326 16.7573 21.4244 14.6655 23.9995 14.6655C26.5746 14.6655 28.6664 16.7573 28.6664 19.3324ZM42.6672 22.666C42.6672 24.8744 40.8754 26.6662 38.667 26.6662C36.4585 26.6662 34.6667 24.8744 34.6667 22.666C34.6667 20.4575 36.4585 18.6657 38.667 18.6657C40.8754 18.6657 42.6672 20.4575 42.6672 22.666ZM35.1834 30.3164C36.2002 29.6913 37.3919 29.333 38.667 29.333C42.3505 29.333 45.334 32.3165 45.334 36V38.7585C45.334 40.1752 44.1839 41.3336 42.7588 41.3336H35.4418C35.8001 40.5169 36.0002 39.6169 36.0002 38.6668V34.6666C36.0002 33.1332 35.7085 31.6664 35.1834 30.3164Z" fill="url(#paint0_linear_3687_213)"/>
<path d="M22.8083 0.281265C23.5583 -0.093755 24.4417 -0.093755 25.1917 0.281265L46.5262 10.9485C47.8429 11.6069 48.3763 13.207 47.7179 14.5237C47.0596 15.8404 45.4595 16.3738 44.1427 15.7154L24 5.64822L3.85726 15.7154C2.54052 16.3738 0.940437 15.8404 0.282068 14.5237C-0.3763 13.207 0.157061 11.6069 1.4738 10.9485L22.8083 0.281265Z" fill="url(#paint1_linear_3687_213)"/>
<defs>
<linearGradient id="paint0_linear_3687_213" x1="2.85939" y1="29.2308" x2="45.4391" y2="27.939" gradientUnits="userSpaceOnUse">
<stop stop-color="#A18BF0"/>
<stop offset="1" stop-color="#4E64F1"/>
</linearGradient>
<linearGradient id="paint1_linear_3687_213" x1="0.218637" y1="8.73732" x2="48.0077" y2="6.01846" gradientUnits="userSpaceOnUse">
<stop stop-color="#A18BF0"/>
<stop offset="1" stop-color="#4E64F1"/>
</linearGradient>
</defs>
</svg>
