<svg width="54" height="54" viewBox="0 0 54 54" fill="none" xmlns="http://www.w3.org/2000/svg">
<g filter="url(#filter0_d_3687_258)">
<path opacity="0.4" d="M2 25C2 38.2562 12.7438 49 26 49C39.2562 49 50 38.2562 50 25C50 11.7438 39.2562 1 26 1C12.7438 1 2 11.7438 2 25ZM15.5 24.9437C15.5 24.5031 15.6875 24.0813 16.0156 23.7812L29.2531 11.9406C29.5719 11.6594 29.9844 11.5 30.4156 11.5C31.5781 11.5 32.4125 12.625 32.0844 13.7406L29.1594 23.5H34.9531C35.8156 23.5 36.5094 24.1938 36.5094 25.0563C36.5094 25.4969 36.3219 25.9187 35.9938 26.2188L22.7469 38.0594C22.4281 38.3406 22.0156 38.5 21.5844 38.5C20.4219 38.5 19.5875 37.375 19.9156 36.2594L22.8406 26.5H17.0469C16.1844 26.5 15.4906 25.8062 15.4906 24.9437H15.5Z" fill="url(#paint0_linear_3687_258)"/>
<path d="M22.85 26.5H17.0563C16.1938 26.5 15.5 25.8062 15.5 24.9437C15.5 24.5031 15.6875 24.0813 16.0156 23.7812L29.2531 11.9406C29.5719 11.6594 29.9844 11.5 30.4156 11.5C31.5781 11.5 32.4125 12.625 32.0844 13.7406L29.1594 23.5H34.9531C35.8156 23.5 36.5094 24.1938 36.5094 25.0563C36.5094 25.4969 36.3219 25.9187 35.9938 26.2188L22.7469 38.0594C22.4281 38.3406 22.0156 38.5 21.5844 38.5C20.4219 38.5 19.5875 37.375 19.9156 36.2594L22.85 26.5Z" fill="url(#paint1_linear_3687_258)"/>
</g>
<defs>
<filter id="filter0_d_3687_258" x="0" y="0" width="54" height="54" filterUnits="userSpaceOnUse" color-interpolation-filters="sRGB">
<feFlood flood-opacity="0" result="BackgroundImageFix"/>
<feColorMatrix in="SourceAlpha" type="matrix" values="0 0 0 0 0 0 0 0 0 0 0 0 0 0 0 0 0 0 127 0" result="hardAlpha"/>
<feOffset dx="1" dy="2"/>
<feGaussianBlur stdDeviation="1.5"/>
<feComposite in2="hardAlpha" operator="out"/>
<feColorMatrix type="matrix" values="0 0 0 0 0 0 0 0 0 0 0 0 0 0 0 0 0 0 0.04 0"/>
<feBlend mode="normal" in2="BackgroundImageFix" result="effect1_dropShadow_3687_258"/>
<feBlend mode="normal" in="SourceGraphic" in2="effect1_dropShadow_3687_258" result="shape"/>
</filter>
<linearGradient id="paint0_linear_3687_258" x1="2.21864" y1="27.2161" x2="50.1451" y2="26.3073" gradientUnits="userSpaceOnUse">
<stop stop-color="#A18BF0"/>
<stop offset="1" stop-color="#4E64F1"/>
</linearGradient>
<linearGradient id="paint1_linear_3687_258" x1="15.5957" y1="26.2465" x2="36.5759" y2="25.937" gradientUnits="userSpaceOnUse">
<stop stop-color="#A18BF0"/>
<stop offset="1" stop-color="#4E64F1"/>
</linearGradient>
</defs>
</svg>
