<svg width="80" height="80" viewBox="0 0 80 80" fill="none" xmlns="http://www.w3.org/2000/svg">
<circle cx="40" cy="40" r="40" fill="url(#paint0_linear_3668_249)"/>
<g filter="url(#filter0_d_3668_249)">
<path opacity="0.4" d="M14 53.9714V59.6593C14 61.2324 15.2709 62.5033 16.844 62.5033H45.3279C47.9052 62.5033 50.4203 61.6768 52.5 60.1482L63.7513 51.8562C65.3333 50.692 65.671 48.4701 64.5068 46.8882C63.3425 45.3062 61.1207 44.9685 59.5388 46.1328L48.8917 53.9714H38.8846C37.7025 53.9714 36.7516 53.0205 36.7516 51.8385C36.7516 50.6564 37.7025 49.7055 38.8846 49.7055H45.2835C46.8565 49.7055 48.1274 48.4346 48.1274 46.8615C48.1274 45.2885 46.8565 44.0176 45.2835 44.0176H31.7569C28.7441 44.0176 25.8468 45.2174 23.7139 47.3503L19.9279 51.1275H16.844C15.2709 51.1275 14 52.3984 14 53.9714Z" fill="url(#paint1_linear_3668_249)"/>
<path d="M33.9069 17V27.8159C33.9069 28.127 34.1557 28.3758 34.4668 28.3758C34.5645 28.3758 34.6623 28.3492 34.7423 28.3047L38.8838 25.9407C39.3192 25.6918 39.8614 25.6918 40.2968 25.9407L44.4384 28.3047C44.5272 28.3492 44.6161 28.3758 44.7139 28.3758C45.0249 28.3758 45.2738 28.127 45.2738 27.8159L45.2827 17H49.5486C51.9037 17 53.8145 18.9108 53.8145 21.2659V35.4857C53.8145 37.8409 51.9037 39.7517 49.5486 39.7517H29.6409C27.2858 39.7517 25.375 37.8409 25.375 35.4857V21.2659C25.375 18.9108 27.2858 17 29.6409 17H33.9069Z" fill="url(#paint2_linear_3668_249)"/>
</g>
<defs>
<filter id="filter0_d_3668_249" x="12" y="16" width="57.1992" height="51.5034" filterUnits="userSpaceOnUse" color-interpolation-filters="sRGB">
<feFlood flood-opacity="0" result="BackgroundImageFix"/>
<feColorMatrix in="SourceAlpha" type="matrix" values="0 0 0 0 0 0 0 0 0 0 0 0 0 0 0 0 0 0 127 0" result="hardAlpha"/>
<feOffset dx="1" dy="2"/>
<feGaussianBlur stdDeviation="1.5"/>
<feComposite in2="hardAlpha" operator="out"/>
<feColorMatrix type="matrix" values="0 0 0 0 0 0 0 0 0 0 0 0 0 0 0 0 0 0 0.04 0"/>
<feBlend mode="normal" in2="BackgroundImageFix" result="effect1_dropShadow_3668_249"/>
<feBlend mode="normal" in="SourceGraphic" in2="effect1_dropShadow_3668_249" result="shape"/>
</filter>
<linearGradient id="paint0_linear_3668_249" x1="40" y1="0" x2="40" y2="80" gradientUnits="userSpaceOnUse">
<stop stop-color="#F8F8F8"/>
<stop offset="1" stop-color="white"/>
</linearGradient>
<linearGradient id="paint1_linear_3668_249" x1="14.2332" y1="54.1139" x2="65.232" y2="51.4356" gradientUnits="userSpaceOnUse">
<stop stop-color="#18CADD"/>
<stop offset="1" stop-color="#4E64F1"/>
</linearGradient>
<linearGradient id="paint2_linear_3668_249" x1="25.5045" y1="29.4262" x2="53.8948" y2="28.7533" gradientUnits="userSpaceOnUse">
<stop stop-color="#18CADD"/>
<stop offset="1" stop-color="#4E64F1"/>
</linearGradient>
</defs>
</svg>
