<svg width="80" height="80" viewBox="0 0 80 80" fill="none" xmlns="http://www.w3.org/2000/svg">
<circle cx="40" cy="40" r="40" fill="url(#paint0_linear_3701_261)"/>
<g filter="url(#filter0_d_3701_261)">
<path opacity="0.4" d="M18.665 54.9995C18.665 51.316 21.6485 48.3325 25.3321 48.3325C26.6071 48.3325 27.7989 48.6908 28.8156 49.3159C28.2906 50.6659 27.9989 52.1327 27.9989 53.6661V57.6663C27.9989 58.6164 28.1989 59.5164 28.5572 60.3331H21.2402C19.8234 60.3331 18.665 59.1831 18.665 57.758V54.9995ZM29.3323 41.6655C29.3323 43.8739 27.5405 45.6657 25.3321 45.6657C23.1236 45.6657 21.3318 43.8739 21.3318 41.6655C21.3318 39.457 23.1236 37.6653 25.3321 37.6653C27.5405 37.6653 29.3323 39.457 29.3323 41.6655ZM31.9991 54.9995C31.9991 50.5826 35.5826 46.9991 39.9995 46.9991C44.4164 46.9991 47.9999 50.5826 47.9999 54.9995V57.6663C47.9999 59.1414 46.8082 60.3331 45.3331 60.3331H34.6659C33.1908 60.3331 31.9991 59.1414 31.9991 57.6663V54.9995ZM44.6664 38.332C44.6664 40.9071 42.5746 42.9989 39.9995 42.9989C37.4244 42.9989 35.3326 40.9071 35.3326 38.332C35.3326 35.7568 37.4244 33.665 39.9995 33.665C42.5746 33.665 44.6664 35.7568 44.6664 38.332ZM58.6672 41.6655C58.6672 43.8739 56.8754 45.6657 54.667 45.6657C52.4585 45.6657 50.6667 43.8739 50.6667 41.6655C50.6667 39.457 52.4585 37.6653 54.667 37.6653C56.8754 37.6653 58.6672 39.457 58.6672 41.6655ZM51.1834 49.3159C52.2002 48.6908 53.3919 48.3325 54.667 48.3325C58.3505 48.3325 61.334 51.316 61.334 54.9995V57.758C61.334 59.1747 60.1839 60.3331 58.7588 60.3331H51.4418C51.8001 59.5164 52.0002 58.6164 52.0002 57.6663V53.6661C52.0002 52.1327 51.7085 50.6659 51.1834 49.3159Z" fill="url(#paint1_linear_3701_261)"/>
<path d="M38.8083 19.2813C39.5583 18.9062 40.4417 18.9062 41.1917 19.2813L62.5262 29.9485C63.8429 30.6069 64.3763 32.207 63.7179 33.5237C63.0596 34.8404 61.4595 35.3738 60.1427 34.7154L40 24.6482L19.8573 34.7154C18.5405 35.3738 16.9404 34.8404 16.2821 33.5237C15.6237 32.207 16.1571 30.6069 17.4738 29.9485L38.8083 19.2813Z" fill="url(#paint2_linear_3701_261)"/>
</g>
<defs>
<filter id="filter0_d_3701_261" x="14" y="18" width="54" height="47.333" filterUnits="userSpaceOnUse" color-interpolation-filters="sRGB">
<feFlood flood-opacity="0" result="BackgroundImageFix"/>
<feColorMatrix in="SourceAlpha" type="matrix" values="0 0 0 0 0 0 0 0 0 0 0 0 0 0 0 0 0 0 127 0" result="hardAlpha"/>
<feOffset dx="1" dy="2"/>
<feGaussianBlur stdDeviation="1.5"/>
<feComposite in2="hardAlpha" operator="out"/>
<feColorMatrix type="matrix" values="0 0 0 0 0 0 0 0 0 0 0 0 0 0 0 0 0 0 0.04 0"/>
<feBlend mode="normal" in2="BackgroundImageFix" result="effect1_dropShadow_3701_261"/>
<feBlend mode="normal" in="SourceGraphic" in2="effect1_dropShadow_3701_261" result="shape"/>
</filter>
<linearGradient id="paint0_linear_3701_261" x1="40" y1="0" x2="40" y2="80" gradientUnits="userSpaceOnUse">
<stop stop-color="#F8F8F8"/>
<stop offset="1" stop-color="white"/>
</linearGradient>
<linearGradient id="paint1_linear_3701_261" x1="18.8594" y1="48.2303" x2="61.4391" y2="46.9385" gradientUnits="userSpaceOnUse">
<stop stop-color="#18CADD"/>
<stop offset="1" stop-color="#4E64F1"/>
</linearGradient>
<linearGradient id="paint2_linear_3701_261" x1="16.2186" y1="27.7373" x2="64.0077" y2="25.0185" gradientUnits="userSpaceOnUse">
<stop stop-color="#18CADD"/>
<stop offset="1" stop-color="#4E64F1"/>
</linearGradient>
</defs>
</svg>
