<svg width="80" height="80" viewBox="0 0 80 80" fill="none" xmlns="http://www.w3.org/2000/svg">
<circle cx="40" cy="40" r="40" fill="url(#paint0_linear_3668_250)"/>
<g filter="url(#filter0_d_3668_250)">
<path opacity="0.4" d="M16 29V45.6125C16 47.525 16.7575 49.355 18.1075 50.705L25.6 58.1975C26.5 59.0975 27.7225 59.6 28.9975 59.6H34C35.9875 59.6 37.6 57.9875 37.6 56V50.0825C37.6 47.855 36.715 45.7175 35.14 44.1425C32.245 41.2475 31.57 40.5725 29.695 38.6975C28.7575 37.76 27.235 37.76 26.2975 38.6975C25.36 39.635 25.36 41.1575 26.2975 42.095C28.105 43.9025 29.29 45.0875 29.8375 45.635C30.6625 46.46 30.5275 47.825 29.56 48.47C28.8325 48.9575 27.8575 48.86 27.235 48.2375L23.4025 44.4125C22.5025 43.5125 22 42.29 22 41.015V29C22 27.3425 20.6575 26 19 26C17.3425 26 16 27.3425 16 29ZM42.4 50.0825V56C42.4 57.9875 44.0125 59.6 46 59.6H51.0025C52.2775 59.6 53.5 59.0975 54.4 58.1975L61.8925 50.705C63.2425 49.355 64 47.525 64 45.6125V29C64 27.3425 62.6575 26 61 26C59.3425 26 58 27.3425 58 29V41.015C58 42.29 57.4975 43.5125 56.5975 44.4125L52.765 48.245C52.1425 48.8675 51.1675 48.965 50.44 48.4775C49.4725 47.8325 49.3375 46.46 50.1625 45.6425C50.71 45.095 51.895 43.91 53.7025 42.1025C54.64 41.165 54.64 39.6425 53.7025 38.705C52.765 37.7675 51.2425 37.7675 50.305 38.705C46.4125 42.5975 46.4875 42.5225 44.86 44.15C43.285 45.725 42.4 47.8625 42.4 50.09V50.0825Z" fill="url(#paint1_linear_3668_250)"/>
<path d="M38.1996 21.8C38.1996 20.8025 39.0021 20 39.9996 20C40.9971 20 41.7996 20.8025 41.7996 21.8V22.7H42.9996C44.1621 22.7 45.0996 23.6375 45.0996 24.8C45.0996 25.9625 44.1621 26.9 42.9996 26.9H38.0646C37.6371 26.9 37.2996 27.245 37.2996 27.665C37.2996 28.055 37.5846 28.3775 37.9746 28.43L42.5496 29C45.0321 29.3075 46.8996 31.4225 46.8996 33.9275C46.8996 36.6725 44.6721 38.8925 41.9346 38.8925H41.7996V39.7925C41.7996 40.79 40.9971 41.5925 39.9996 41.5925C39.0021 41.5925 38.1996 40.79 38.1996 39.7925V38.8925H36.3996C35.2371 38.8925 34.2996 37.955 34.2996 36.7925C34.2996 35.63 35.2371 34.6925 36.3996 34.6925H41.9346C42.3621 34.6925 42.6996 34.3475 42.6996 33.9275C42.6996 33.5375 42.4146 33.215 42.0246 33.1625L37.4496 32.6C34.9671 32.2925 33.0996 30.1775 33.0996 27.6725C33.0996 24.9275 35.3271 22.7075 38.0646 22.7075H38.1996V21.8075V21.8Z" fill="url(#paint2_linear_3668_250)"/>
</g>
<defs>
<filter id="filter0_d_3668_250" x="14" y="19" width="54" height="45.6001" filterUnits="userSpaceOnUse" color-interpolation-filters="sRGB">
<feFlood flood-opacity="0" result="BackgroundImageFix"/>
<feColorMatrix in="SourceAlpha" type="matrix" values="0 0 0 0 0 0 0 0 0 0 0 0 0 0 0 0 0 0 127 0" result="hardAlpha"/>
<feOffset dx="1" dy="2"/>
<feGaussianBlur stdDeviation="1.5"/>
<feComposite in2="hardAlpha" operator="out"/>
<feColorMatrix type="matrix" values="0 0 0 0 0 0 0 0 0 0 0 0 0 0 0 0 0 0 0.04 0"/>
<feBlend mode="normal" in2="BackgroundImageFix" result="effect1_dropShadow_3668_250"/>
<feBlend mode="normal" in="SourceGraphic" in2="effect1_dropShadow_3668_250" result="shape"/>
</filter>
<linearGradient id="paint0_linear_3668_250" x1="40" y1="0" x2="40" y2="80" gradientUnits="userSpaceOnUse">
<stop stop-color="#F8F8F8"/>
<stop offset="1" stop-color="white"/>
</linearGradient>
<linearGradient id="paint1_linear_3668_250" x1="16.2186" y1="44.3512" x2="64.1272" y2="43.0535" gradientUnits="userSpaceOnUse">
<stop stop-color="#18CADD"/>
<stop offset="1" stop-color="#4E64F1"/>
</linearGradient>
<linearGradient id="paint2_linear_3668_250" x1="33.1625" y1="31.7931" x2="46.9443" y2="31.6261" gradientUnits="userSpaceOnUse">
<stop stop-color="#18CADD"/>
<stop offset="1" stop-color="#4E64F1"/>
</linearGradient>
</defs>
</svg>
