<svg width="48" height="42" viewBox="0 0 48 42" fill="none" xmlns="http://www.w3.org/2000/svg">
<path opacity="0.4" d="M4.50937 14.7803V31.2803C7.74375 31.2803 10.3781 33.8396 10.5094 37.0459C14.625 37.1959 18.1219 36.0896 22.0687 34.7771L22.5094 34.6271C26.7656 33.2115 31.5938 31.599 37.575 31.899C38.0063 29.0021 40.5 26.7803 43.5094 26.7803V10.2803C40.275 10.2803 37.6406 7.72089 37.5094 4.51464C33.3938 4.36464 29.8969 5.47089 25.95 6.78339L25.5 6.93339C21.2437 8.34902 16.4156 9.96152 10.4344 9.66152C10.0031 12.5584 7.50937 14.7803 4.5 14.7803H4.50937ZM15.0094 20.7803C15.0094 14.9771 19.0406 10.2803 24.0094 10.2803C28.9781 10.2803 33.0094 14.9771 33.0094 20.7803C33.0094 26.5834 28.9781 31.2803 24.0094 31.2803C19.0406 31.2803 15.0094 26.5834 15.0094 20.7803Z" fill="url(#paint0_linear_3687_273)"/>
<path d="M10.5094 37.0457C10.3781 33.8395 7.74375 31.2801 4.50937 31.2801V14.7801C7.51875 14.7801 10.0125 12.5582 10.4438 9.66137C16.425 9.96137 21.2531 8.34887 25.5094 6.93325L25.9594 6.78325C29.9062 5.47075 33.4031 4.35512 37.5188 4.5145C37.6406 7.72075 40.2844 10.2801 43.5187 10.2801V26.7801C40.5094 26.7801 38.0156 29.002 37.5844 31.8989C31.6031 31.5989 26.775 33.2114 22.5188 34.627L22.0781 34.777C18.1313 36.0895 14.6344 37.2051 10.5188 37.0457H10.5094ZM0.00937486 7.04575V36.1176C0.00937486 37.9364 1.11563 39.6145 2.85 40.177C11.6625 42.9895 17.7375 40.9645 23.7844 38.9489C29.6344 36.9989 35.4469 35.0582 43.6688 37.5145C45.75 38.1332 48 36.6895 48 34.5145V5.44262C48 3.62387 46.8937 1.94575 45.1594 1.38325C36.3469 -1.42925 30.2719 0.595749 24.225 2.61137C18.375 4.56137 12.5625 6.502 4.34062 4.04575C2.25937 3.427 0 4.87075 0 7.04575H0.00937486ZM33.0094 20.7801C33.0094 14.977 28.9781 10.2801 24.0094 10.2801C19.0406 10.2801 15.0094 14.977 15.0094 20.7801C15.0094 26.5832 19.0406 31.2801 24.0094 31.2801C28.9781 31.2801 33.0094 26.5832 33.0094 20.7801ZM22.5094 15.1551H24.0094C25.0406 15.1551 25.8844 15.9989 25.8844 17.0301V22.6926C26.7375 22.8707 27.3844 23.6207 27.3844 24.5301C27.3844 25.5614 26.5406 26.4051 25.5094 26.4051H22.5094C21.4781 26.4051 20.6344 25.5614 20.6344 24.5301C20.6344 23.6207 21.2813 22.8707 22.1344 22.6926V18.8676C21.2813 18.6895 20.6344 17.9395 20.6344 17.0301C20.6344 15.9989 21.4781 15.1551 22.5094 15.1551Z" fill="url(#paint1_linear_3687_273)"/>
<defs>
<linearGradient id="paint0_linear_3687_273" x1="4.67768" y1="22.2834" x2="43.6212" y2="21.3987" gradientUnits="userSpaceOnUse">
<stop stop-color="#64C381"/>
<stop offset="1" stop-color="#1B7B38"/>
</linearGradient>
<linearGradient id="paint1_linear_3687_273" x1="0.218637" y1="22.6989" x2="48.1394" y2="21.6494" gradientUnits="userSpaceOnUse">
<stop stop-color="#64C381"/>
<stop offset="1" stop-color="#1B7B38"/>
</linearGradient>
</defs>
</svg>
