<svg width="54" height="52" viewBox="0 0 54 52" fill="none" xmlns="http://www.w3.org/2000/svg">
<g filter="url(#filter0_d_3599_203)">
<path d="M7.43359 20.3712H16.7351C17.0273 13.2239 18.8726 6.58592 21.5696 2.2274C13.8795 4.94938 8.21846 11.9547 7.43359 20.3712ZM20.7429 20.3712H22.129C22.5632 20.3211 22.9806 20.3211 23.3898 20.3712H36.6824C36.4486 14.9857 35.2546 10.026 33.5597 6.39388C32.6078 4.35656 31.5808 2.90372 30.6289 2.01866C29.6938 1.14194 29.0508 1 28.7169 1C28.3829 1 27.7399 1.14194 26.8048 2.01866C25.8529 2.90372 24.8259 4.35656 23.8741 6.39388C22.1791 10.026 20.9851 14.9857 20.7429 20.3712ZM24.3166 39.2498C25.1432 40.8278 26.0032 41.9801 26.8048 42.7316C27.7399 43.6083 28.3829 43.7502 28.7169 43.7502C29.0508 43.7502 29.6938 43.6083 30.6289 42.7316C31.5808 41.8465 32.6078 40.3937 33.5597 38.3563C35.2546 34.7242 36.4486 29.7646 36.6908 24.379H27.932C28.1574 25.2557 28.1574 26.216 27.8652 27.1929L24.3166 39.2498ZM35.8642 2.2274C38.5611 6.58592 40.4064 13.2239 40.6986 20.3712H50.0001C49.2153 11.9547 43.5542 4.94938 35.8642 2.2274ZM35.8642 42.5312C43.5542 39.8008 49.2153 32.7955 50.0001 24.379H40.6986C40.4064 31.5263 38.5611 38.1643 35.8642 42.5228V42.5312Z" fill="#17BED0"/>
<path d="M22.3627 24.4039L5.25428 29.4303C4.09368 29.7727 3.95173 31.3675 5.03719 31.9102L9.82154 34.3065C9.93008 34.365 10.0386 34.4318 10.1305 34.5153L2.78278 41.863C1.73907 42.9067 1.73907 44.6017 2.78278 45.6454C3.82649 46.6891 5.52147 46.6891 6.56517 45.6454L13.9129 38.2977C13.9964 38.3895 14.0715 38.4897 14.1216 38.6066L16.518 43.391C17.0607 44.4764 18.6555 44.3345 18.9978 43.1739L24.0243 26.0738C24.3249 25.0551 23.3814 24.12 22.3627 24.4122V24.4039Z" fill="#909090"/>
</g>
<defs>
<filter id="filter0_d_3599_203" x="0" y="0" width="54" height="51.4282" filterUnits="userSpaceOnUse" color-interpolation-filters="sRGB">
<feFlood flood-opacity="0" result="BackgroundImageFix"/>
<feColorMatrix in="SourceAlpha" type="matrix" values="0 0 0 0 0 0 0 0 0 0 0 0 0 0 0 0 0 0 127 0" result="hardAlpha"/>
<feOffset dx="1" dy="2"/>
<feGaussianBlur stdDeviation="1.5"/>
<feComposite in2="hardAlpha" operator="out"/>
<feColorMatrix type="matrix" values="0 0 0 0 0 0 0 0 0 0 0 0 0 0 0 0 0 0 0.04 0"/>
<feBlend mode="normal" in2="BackgroundImageFix" result="effect1_dropShadow_3599_203"/>
<feBlend mode="normal" in="SourceGraphic" in2="effect1_dropShadow_3599_203" result="shape"/>
</filter>
</defs>
</svg>
