<svg width="48" height="46" viewBox="0 0 48 46" fill="none" xmlns="http://www.w3.org/2000/svg">
<path opacity="0.4" d="M0 13.3333V21.3333H25.4167C28.2333 18.8417 31.9417 17.3333 36 17.3333C38.3833 17.3333 40.6333 17.85 42.6667 18.7833V13.3333C42.6667 10.3917 40.275 8 37.3333 8H30.6667V4.66667C30.6667 2.09167 28.575 0 26 0H16.6667C14.0917 0 12 2.09167 12 4.66667V8H5.33333C2.39167 8 0 10.3917 0 13.3333ZM0 25.3333V34.6667C0 37.6083 2.39167 40 5.33333 40H21.45C20.5167 37.9667 20 35.7167 20 33.3333C20 31.95 20.175 30.6083 20.5 29.3333H18.6667C17.1917 29.3333 16 28.1417 16 26.6667V25.3333H0ZM16 4.66667C16 4.3 16.3 4 16.6667 4H26C26.3667 4 26.6667 4.3 26.6667 4.66667V8H16V4.66667Z" fill="url(#paint0_linear_3687_277)"/>
<path d="M36 45.333C42.625 45.333 48 39.958 48 33.333C48 26.708 42.625 21.333 36 21.333C29.375 21.333 24 26.708 24 33.333C24 39.958 29.375 45.333 36 45.333ZM37.3333 27.9997V31.9997H40C40.7333 31.9997 41.3333 32.5997 41.3333 33.333C41.3333 34.0663 40.7333 34.6663 40 34.6663H36C35.2667 34.6663 34.6667 34.0663 34.6667 33.333V27.9997C34.6667 27.2663 35.2667 26.6663 36 26.6663C36.7333 26.6663 37.3333 27.2663 37.3333 27.9997Z" fill="url(#paint1_linear_3687_277)"/>
<defs>
<linearGradient id="paint0_linear_3687_277" x1="0.194344" y1="21.8467" x2="42.7936" y2="20.9851" gradientUnits="userSpaceOnUse">
<stop stop-color="#E7A845"/>
<stop offset="1" stop-color="#B37A21"/>
</linearGradient>
<linearGradient id="paint1_linear_3687_277" x1="24.1093" y1="34.441" x2="48.0726" y2="33.9867" gradientUnits="userSpaceOnUse">
<stop stop-color="#E7A845"/>
<stop offset="1" stop-color="#B37A21"/>
</linearGradient>
</defs>
</svg>
