<svg width="20" height="20" viewBox="0 0 20 20" fill="none" xmlns="http://www.w3.org/2000/svg">
<path d="M17.7773 0C19.0046 0 20 0.995357 20 2.22266V17.7773C20 19.0046 19.0046 20 17.7773 20H2.22266C0.995357 20 0 19.0046 0 17.7773V2.22266C0 0.995357 0.995357 0 2.22266 0H17.7773ZM3.06543 17.2227H6.04785V7.59277H3.06543V17.2227ZM13.7178 7.29883C11.6744 7.2989 10.8145 8.89062 10.8145 8.89062V7.59277H7.9541V17.2227H10.8145V12.168C10.8145 10.8137 11.4378 10.008 12.6309 10.0078C13.7278 10.0078 14.2549 10.782 14.2549 12.168V17.2227H17.2227V11.126C17.2227 8.54633 15.7603 7.29883 13.7178 7.29883ZM4.54199 2.77832C3.56776 2.77834 2.77832 3.57438 2.77832 4.55566C2.77853 5.53676 3.56789 6.33201 4.54199 6.33203C5.51611 6.33203 6.30545 5.53677 6.30566 4.55566C6.30566 3.57437 5.51624 2.77832 4.54199 2.77832Z" fill="white"/>
</svg>
